<svg width="40" height="40" viewBox="0 0 40 40" fill="none" xmlns="http://www.w3.org/2000/svg">
<g clip-path="url(#clip0_52_3)">
<path d="M20 40C31.0457 40 40 31.0457 40 20C40 8.95431 31.0457 0 20 0C8.95431 0 0 8.95431 0 20C0 31.0457 8.95431 40 20 40Z" fill="#121212"/>
<path d="M23.6199 19.404V15.594H12.7939V11.95H11.1899V26.164H16.2019C20.3619 26.164 23.6199 23.488 23.6199 19.404ZM16.2019 24.562H12.7939V17.2H22.0159V19.406C22.0159 22.592 19.4619 24.562 16.2019 24.562Z" fill="white"/>
<path d="M30.8241 28.114L26.2661 23.856C26.9361 22.128 27.2961 20.064 27.2961 17.86V12.086H17.4721V13.69H25.6921V18.768C25.2401 25.004 22.5921 27.164 17.4041 27.876V29.248C20.0161 29.248 23.9241 28.008 25.3781 25.66C25.4321 25.574 25.4821 25.484 25.5341 25.394L29.6881 29.248L30.8221 28.114H30.8241Z" fill="white"/>
</g>
<defs>
<clipPath id="clip0_52_3">
<rect width="40" height="40" fill="white"/>
</clipPath>
</defs>
</svg>
