<?xml version="1.0" encoding="UTF-8"?>
<svg id="Layer_2" data-name="Layer 2" xmlns="http://www.w3.org/2000/svg" viewBox="0 0 600 585">
  <g id="Layer_1-2" data-name="Layer 1">
    <g>
      <rect width="600" height="585" rx="106" ry="106" fill="none"/>
      <g>
        <path d="M234.46,301.45c1.38-24.56,13.38-46.25,31.57-61.58,17.8-15.07,41.71-24.3,67.95-24.3s50.02,9.21,67.82,24.3c18.19,15.33,30.14,37.03,31.57,61.58,1.38,25.21-8.77,48.72-26.5,66.13-18.19,17.67-43.91,28.84-72.89,28.84s-54.83-11.1-72.89-28.84c-17.8-17.41-27.93-40.8-26.5-66l-.13-.13Z" fill="#fff"/>
        <g>
          <path d="M288.9,298.45c.71-12.62,6.88-23.77,16.22-31.65,9.15-7.74,21.43-12.49,34.92-12.49s25.71,4.73,34.85,12.49c9.35,7.88,15.49,19.03,16.22,31.65.71,12.95-4.51,25.04-13.62,33.98-9.35,9.08-22.57,14.82-37.46,14.82s-28.18-5.7-37.46-14.82c-9.15-8.95-14.35-20.96-13.62-33.92l-.07-.07Z" fill="#265787"/>
          <path d="M208.78,325.15c.09,4.94,1.66,14.55,4.03,22.03,4.97,15.89,13.42,30.58,25.1,43.46,12.02,13.29,26.84,23.97,43.93,31.58,17.96,7.95,37.46,12.02,57.69,12.02,20.23-.03,39.73-4.17,57.69-12.22,17.09-7.68,31.91-18.36,43.93-31.71,11.75-13.02,20.16-27.71,25.1-43.6,2.5-8.01,4.09-16.16,4.72-24.3.62-8.01.36-16.09-.78-24.17-2.23-15.69-7.68-30.45-16.02-43.8-7.61-12.35-17.49-23.1-29.24-32.18l.03-.02-118.18-90.8c-.11-.08-.19-.17-.31-.24-7.74-5.96-20.83-5.94-29.31.03-8.61,6.04-9.61,16.02-1.94,22.3l-.03.03,49.34,40.13-150.22.16h-.2c-12.42.01-24.37,8.15-26.71,18.49-2.43,10.48,6.01,19.23,18.96,19.23l-.02.05,76.11-.15-136.2,104.16c-.17.13-.36.26-.52.39-12.82,9.81-16.96,26.17-8.88,36.45,8.21,10.48,25.64,10.55,38.59.06l74.11-60.76s-1.08,8.21-.99,13.09l.23.29ZM399.73,352.59c-15.29,15.56-36.72,24.44-59.82,24.44-23.17.04-44.6-8.68-59.89-24.24-7.48-7.61-12.95-16.29-16.36-25.57-3.32-9.15-4.61-18.83-3.75-28.58.81-9.55,3.65-18.69,8.21-26.91,4.46-8.08,10.62-15.42,18.16-21.63,14.89-12.08,33.78-18.69,53.55-18.69,19.83-.03,38.72,6.47,53.61,18.56,7.54,6.17,13.69,13.49,18.16,21.57,4.56,8.21,7.41,17.29,8.21,26.91.84,9.75-.45,19.43-3.77,28.58-3.39,9.35-8.88,18.03-16.36,25.64l.04-.07Z" fill="#ea7600"/>
        </g>
      </g>
    </g>
  </g>
</svg>