<?xml version="1.0" encoding="UTF-8"?>
<svg id="Layer_2" xmlns="http://www.w3.org/2000/svg" version="1.1" viewBox="0 0 600 585">
  <!-- Generator: Adobe Illustrator 30.1.0, SVG Export Plug-In . SVG Version: 2.1.1 Build 136)  -->
  <defs>
    <style>
      .st0 {
        fill: #fff;
      }

      .st1 {
        fill: #265787;
      }

      .st2 {
        fill: #ea7600;
      }
    </style>
  </defs>
  <g id="Layer_1-2">
    <g>
      <rect width="600" height="585" rx="106" ry="106"/>
      <g>
        <path class="st0" d="M234.5,301.5c1.4-24.6,13.4-46.2,31.6-61.6,17.8-15.1,41.7-24.3,67.9-24.3s50,9.2,67.8,24.3c18.2,15.3,30.1,37,31.6,61.6,1.4,25.2-8.8,48.7-26.5,66.1-18.2,17.7-43.9,28.8-72.9,28.8s-54.8-11.1-72.9-28.8c-17.8-17.4-27.9-40.8-26.5-66h-.1q0-.1,0-.1Z"/>
        <g>
          <path class="st1" d="M288.9,298.5c.7-12.6,6.9-23.8,16.2-31.6,9.1-7.7,21.4-12.5,34.9-12.5s25.7,4.7,34.9,12.5c9.4,7.9,15.5,19,16.2,31.6.7,13-4.5,25-13.6,34-9.4,9.1-22.6,14.8-37.5,14.8s-28.2-5.7-37.5-14.8c-9.1-9-14.4-21-13.6-33.9h0c0,0,0,0,0,0Z"/>
          <path class="st2" d="M208.8,325.1c0,4.9,1.7,14.5,4,22,5,15.9,13.4,30.6,25.1,43.5,12,13.3,26.8,24,43.9,31.6,18,8,37.5,12,57.7,12,20.2,0,39.7-4.2,57.7-12.2,17.1-7.7,31.9-18.4,43.9-31.7,11.8-13,20.2-27.7,25.1-43.6,2.5-8,4.1-16.2,4.7-24.3.6-8,.4-16.1-.8-24.2-2.2-15.7-7.7-30.5-16-43.8-7.6-12.4-17.5-23.1-29.2-32.2h0s-118.2-90.8-118.2-90.8c-.1,0-.2-.2-.3-.2-7.7-6-20.8-5.9-29.3,0-8.6,6-9.6,16-1.9,22.3h0s49.3,40.2,49.3,40.2l-150.2.2h-.2c-12.4,0-24.4,8.1-26.7,18.5-2.4,10.5,6,19.2,19,19.2h0c0,0,76.1,0,76.1,0l-136.2,104.2c-.2.1-.4.3-.5.4-12.8,9.8-17,26.2-8.9,36.5,8.2,10.5,25.6,10.5,38.6,0l74.1-60.8s-1.1,8.2-1,13.1l.2.3h0ZM399.7,352.6c-15.3,15.6-36.7,24.4-59.8,24.4-23.2,0-44.6-8.7-59.9-24.2-7.5-7.6-13-16.3-16.4-25.6-3.3-9.1-4.6-18.8-3.8-28.6.8-9.5,3.6-18.7,8.2-26.9,4.5-8.1,10.6-15.4,18.2-21.6,14.9-12.1,33.8-18.7,53.5-18.7,19.8,0,38.7,6.5,53.6,18.6,7.5,6.2,13.7,13.5,18.2,21.6,4.6,8.2,7.4,17.3,8.2,26.9.8,9.8-.5,19.4-3.8,28.6-3.4,9.4-8.9,18-16.4,25.6h0c0,0,0,0,0,0Z"/>
        </g>
      </g>
    </g>
  </g>
</svg>