<svg width="255" height="40" viewBox="0 0 255 40" fill="none" xmlns="http://www.w3.org/2000/svg">
<g clip-path="url(#clip0_52_2)">
<path d="M20 40C31.0457 40 40 31.0457 40 20C40 8.95431 31.0457 0 20 0C8.95431 0 0 8.95431 0 20C0 31.0457 8.95431 40 20 40Z" fill="#121212"/>
<path d="M23.6199 19.404V15.594H12.7939V11.95H11.1899V26.164H16.2019C20.3619 26.164 23.6199 23.488 23.6199 19.404ZM16.2019 24.562H12.7939V17.2H22.0159V19.406C22.0159 22.592 19.4619 24.562 16.2019 24.562Z" fill="white"/>
<path d="M30.8241 28.114L26.2661 23.856C26.9361 22.128 27.2961 20.064 27.2961 17.86V12.086H17.4721V13.69H25.6921V18.768C25.2401 25.004 22.5921 27.164 17.4041 27.876V29.248C20.0161 29.248 23.9241 28.008 25.3781 25.66C25.4321 25.574 25.4821 25.484 25.5341 25.394L29.6881 29.248L30.8221 28.114H30.8241Z" fill="white"/>
</g>
<g clip-path="url(#clip1_52_2)">
<path d="M50 8.50182H53.3803V18.9745L59.9447 8.50182H63.6521L56.6952 19.5636L63.783 31.4764H59.9665L53.3803 20.3273V31.4982H50V8.50182Z" fill="#121212"/>
<path d="M69.2351 8.50182V31.4764H65.7893V8.50182H69.2351Z" fill="#121212"/>
<path d="M72.5936 31.4982V8.50182H77.2388L82.1239 27.1127L86.9436 8.50182H91.4579V31.4764H88.1649V14.5018L83.6505 31.4982H80.5101L75.7994 14.48V31.4982H72.5718H72.5936Z" fill="#121212"/>
<path d="M102.624 31.4982V8.50182H110.759C114.03 8.50182 115.644 9.37454 115.644 12.6255V16.0291C115.644 17.9055 114.401 19.4545 111.98 19.5855C114.422 19.6945 115.905 21.1782 115.905 23.1418V27.0036C115.905 30.08 114.859 31.4982 111.064 31.4982H102.624ZM112.285 13.8691C112.285 12.1018 111.653 11.2945 109.734 11.2945H105.983V18.3636H109.516C111.369 18.3636 112.263 17.6655 112.263 15.7891V13.8691H112.285ZM106.004 21.1127V28.6836H109.69C111.631 28.6836 112.547 28.4 112.547 26.5018V23.36C112.547 21.5927 111.304 21.1127 109.646 21.1127H106.004Z" fill="#121212"/>
<path d="M118.806 31.4982V8.50182H130.604V11.36H122.186V18.32H130.343V21.1127H122.186V28.6182H130.866V31.4764H118.806V31.4982Z" fill="#121212"/>
<path d="M132.872 13.0836C132.872 9.54909 135.816 8 139.611 8C143.406 8 146.35 9.54909 146.35 13.0836V26.9164C146.35 30.4509 143.406 32 139.611 32C135.816 32 132.872 30.4509 132.872 26.9164V13.0836ZM136.253 26.5891C136.253 28.2255 137.648 29.1855 139.611 29.1855C141.574 29.1855 142.97 28.2255 142.97 26.5891V13.4109C142.97 11.7745 141.552 10.8145 139.611 10.8145C137.67 10.8145 136.253 11.7745 136.253 13.4109V26.5673V26.5891Z" fill="#121212"/>
<path d="M149.469 31.4982V8.50182H154.114L158.999 27.1127L163.819 8.50182H168.333V31.4764H165.04V14.5018L160.526 31.4982H157.385L152.674 14.48V31.4982H149.447H149.469Z" fill="#121212"/>
<path d="M187.612 8.50182H190.992V26.8945C190.992 30.4291 188.288 31.9782 184.624 31.9782C180.96 31.9782 178.496 30.3636 178.496 26.8945V24.1018H181.92V26.5236C181.92 28.16 182.923 29.1636 184.776 29.1636C186.63 29.1636 187.612 28.16 187.612 26.5236V8.50182Z" fill="#121212"/>
<path d="M194.241 31.4982V8.50182H206.04V11.36H197.622V18.32H205.778V21.1127H197.622V28.6182H206.302V31.4764H194.241V31.4982Z" fill="#121212"/>
<path d="M208.33 13.0836C208.33 9.54909 211.274 8 215.069 8C218.863 8 221.807 9.54909 221.807 13.0836V26.9164C221.807 30.4509 218.863 32 215.069 32C211.274 32 208.33 30.4509 208.33 26.9164V13.0836ZM211.71 26.5891C211.71 28.2255 213.106 29.1855 215.069 29.1855C217.031 29.1855 218.427 28.2255 218.427 26.5891V13.4109C218.427 11.7745 217.01 10.8145 215.069 10.8145C213.128 10.8145 211.71 11.7745 211.71 13.4109V26.5673V26.5891Z" fill="#121212"/>
<path d="M238.338 8.50182V31.4764H234.784L228.241 15.3964V31.4764H224.97V8.50182H228.503L235.067 24.6255V8.50182H238.338Z" fill="#121212"/>
<path d="M248.785 22.2255V19.5418H255V26.8945C255 30.4291 252.056 31.9782 248.261 31.9782C244.466 31.9782 241.5 30.4291 241.5 26.8945V13.0836C241.5 9.54909 244.401 8 248.174 8C251.947 8 254.913 9.54909 254.913 13.0836V15.4618H251.532V13.4109C251.532 11.7745 250.137 10.8145 248.174 10.8145C246.211 10.8145 244.881 11.7745 244.881 13.4109V26.5673C244.881 28.2036 246.342 29.1636 248.261 29.1636C250.18 29.1636 251.641 28.2036 251.641 26.5673V22.2255H248.785Z" fill="#121212"/>
</g>
<defs>
<clipPath id="clip0_52_2">
<rect width="40" height="40" fill="white"/>
</clipPath>
<clipPath id="clip1_52_2">
<rect width="205" height="24" fill="white" transform="translate(50 8)"/>
</clipPath>
</defs>
</svg>
