<?xml version="1.0" encoding="UTF-8"?>
<svg id="Layer_2" data-name="Layer 2" xmlns="http://www.w3.org/2000/svg" xmlns:xlink="http://www.w3.org/1999/xlink" viewBox="0 0 400 810">
  <defs>
    <linearGradient id="_횁책챌청챙첼챠챠청챕_찾챨횪채챔책챠챵_1511" data-name="횁책챌청챙첼챠챠청챕 찾챨횪채챔책챠챵 1511" x1="398.1" y1="301.98" x2="398.1" y2="209.26" gradientUnits="userSpaceOnUse">
      <stop offset="0" stop-color="#020201"/>
      <stop offset=".02" stop-color="#2a2926"/>
      <stop offset=".04" stop-color="#595753"/>
      <stop offset=".07" stop-color="#7f7c76"/>
      <stop offset=".09" stop-color="#9a9790"/>
      <stop offset=".11" stop-color="#aba79f"/>
      <stop offset=".12" stop-color="#b1ada5"/>
      <stop offset=".77" stop-color="#b1ada5"/>
      <stop offset=".88" stop-color="#b1ada5"/>
      <stop offset=".89" stop-color="#aba79f"/>
      <stop offset=".91" stop-color="#9a9790"/>
      <stop offset=".93" stop-color="#7f7c76"/>
      <stop offset=".96" stop-color="#595753"/>
      <stop offset=".98" stop-color="#2a2926"/>
      <stop offset="1" stop-color="#020201"/>
    </linearGradient>
    <linearGradient id="_횁책챌청챙첼챠챠청챕_찾챨횪채챔책챠챵_1511-2" data-name="횁책챌청챙첼챠챠청챕 찾챨횪채챔책챠챵 1511" x1="-4398.95" y1="2141.63" x2="-4398.95" y2="2084.82" gradientTransform="translate(4400.85 -1896.18)" xlink:href="#_횁책챌청챙첼챠챠청챕_찾챨횪채챔책챠챵_1511"/>
    <linearGradient id="_횁책챌청챙첼챠챠청챕_찾챨횪채챔책챠챵_1511-3" data-name="횁책챌청챙첼챠챠청챕 찾챨횪채챔책챠챵 1511" x1="-4398.95" y1="2199.79" x2="-4398.95" y2="2173.12" gradientTransform="translate(4400.85 -2042.64)" xlink:href="#_횁책챌청챙첼챠챠청챕_찾챨횪채챔책챠챵_1511"/>
    <linearGradient id="_횁책챌청챙첼챠챠청챕_찾챨횪채챔책챠챵_1511-4" data-name="횁책챌청챙첼챠챠청챕 찾챨횪채챔책챠챵 1511" x1="-4398.95" y1="2064.57" x2="-4398.95" y2="2007.76" gradientTransform="translate(4400.85 -1742.05)" xlink:href="#_횁책챌청챙첼챠챠청챕_찾챨횪채챔책챠챵_1511"/>
    <linearGradient id="_횁책챌청챙첼챠챠청챕_찾챨횪채챔책챠챵_1425" data-name="횁책챌청챙첼챠챠청챕 찾챨횪채챔책챠챵 1425" x1="2.52" y1="84.95" x2="397.48" y2="84.95" gradientUnits="userSpaceOnUse">
      <stop offset="0" stop-color="#020201"/>
      <stop offset="0" stop-color="#020201"/>
      <stop offset="0" stop-color="#1c1a18"/>
      <stop offset="0" stop-color="#302c2a"/>
      <stop offset="0" stop-color="#3f3a37"/>
      <stop offset="0" stop-color="#47413e"/>
      <stop offset=".01" stop-color="#4a4441"/>
      <stop offset=".5" stop-color="#4a4441"/>
      <stop offset=".92" stop-color="#4a4441"/>
      <stop offset=".99" stop-color="#4a4441"/>
      <stop offset=".99" stop-color="#47413e"/>
      <stop offset="1" stop-color="#3f3a37"/>
      <stop offset="1" stop-color="#302c2a"/>
      <stop offset="1" stop-color="#1c1a18"/>
      <stop offset="1" stop-color="#020201"/>
      <stop offset="1" stop-color="#020201"/>
    </linearGradient>
    <linearGradient id="_횁책챌청챙첼챠챠청챕_찾챨횪채챔책챠챵_1425-2" data-name="횁책챌청챙첼챠챠청챕 찾챨횪채챔책챠챵 1425" y1="725.04" y2="725.04" xlink:href="#_횁책챌청챙첼챠챠청챕_찾챨횪채챔책챠챵_1425"/>
    <linearGradient id="_횁책챌청챙첼챠챠청챕_찾챨횪채챔책챠챵_1428" data-name="횁책챌청챙첼챠챠청챕 찾챨횪채챔책챠챵 1428" x1="299.48" y1="0" x2="299.48" y2="5.24" gradientUnits="userSpaceOnUse">
      <stop offset="0" stop-color="#020201"/>
      <stop offset=".15" stop-color="#1e1c1a"/>
      <stop offset=".32" stop-color="#36322f"/>
      <stop offset=".47" stop-color="#453f3c"/>
      <stop offset=".6" stop-color="#4a4441"/>
    </linearGradient>
    <linearGradient id="_횁책챌청챙첼챠챠청챕_찾챨횪채챔책챠챵_1428-2" data-name="횁책챌청챙첼챠챠청챕 찾챨횪채챔책챠챵 1428" x1="-414.79" y1="5797.61" x2="-414.79" y2="5802.85" gradientTransform="translate(-314.27 6607.61) rotate(-180)" xlink:href="#_횁책챌청챙첼챠챠청챕_찾챨횪채챔책챠챵_1428"/>
    <radialGradient id="radial-gradient" cx="232.91" cy="30.11" fx="232.91" fy="30.11" r="15.83" gradientTransform="translate(0 .22)" gradientUnits="userSpaceOnUse">
      <stop offset="0" stop-color="#000102"/>
      <stop offset=".26" stop-color="#050606"/>
      <stop offset=".58" stop-color="#131415"/>
      <stop offset=".93" stop-color="#2c2c2c"/>
      <stop offset="1" stop-color="#323232"/>
    </radialGradient>
    <clipPath id="clippath">
      <path d="M239.72,34.07c-2.07,0-3.75-1.68-3.75-3.75s1.68-3.75,3.75-3.75,3.75,1.68,3.75,3.75-1.68,3.75-3.75,3.75Z" fill="none"/>
    </clipPath>
    <linearGradient id="_횁책챌청챙첼챠챠청챕_찾챨횪채챔책챠챵_3945" data-name="횁책챌청챙첼챠챠청챕 찾챨횪채챔책챠챵 3945" x1="237.07" y1="27.67" x2="242.37" y2="32.97" gradientUnits="userSpaceOnUse">
      <stop offset="0" stop-color="#07305f"/>
      <stop offset="1" stop-color="#0c1c48"/>
    </linearGradient>
    <linearGradient id="linear-gradient" x1="237.08" y1="27.68" x2="242.36" y2="32.96" gradientUnits="userSpaceOnUse">
      <stop offset="0" stop-color="#072f5c"/>
      <stop offset="1" stop-color="#0d1e4b"/>
    </linearGradient>
    <linearGradient id="linear-gradient-2" x1="237.1" y1="27.7" x2="242.34" y2="32.94" gradientUnits="userSpaceOnUse">
      <stop offset="0" stop-color="#082e5a"/>
      <stop offset="1" stop-color="#0e204e"/>
    </linearGradient>
    <linearGradient id="linear-gradient-3" x1="237.11" y1="27.71" x2="242.33" y2="32.93" gradientUnits="userSpaceOnUse">
      <stop offset="0" stop-color="#082d57"/>
      <stop offset="1" stop-color="#0f2152"/>
    </linearGradient>
    <linearGradient id="linear-gradient-4" x1="237.13" y1="27.73" x2="242.31" y2="32.91" gradientUnits="userSpaceOnUse">
      <stop offset="0" stop-color="#092c54"/>
      <stop offset="1" stop-color="#0f2355"/>
    </linearGradient>
    <linearGradient id="linear-gradient-5" x1="237.14" y1="27.74" x2="242.3" y2="32.9" gradientUnits="userSpaceOnUse">
      <stop offset="0" stop-color="#092b51"/>
      <stop offset="1" stop-color="#102458"/>
    </linearGradient>
    <linearGradient id="linear-gradient-6" x1="237.16" y1="27.76" x2="242.28" y2="32.88" gradientUnits="userSpaceOnUse">
      <stop offset="0" stop-color="#09294f"/>
      <stop offset="1" stop-color="#11265c"/>
    </linearGradient>
    <linearGradient id="linear-gradient-7" x1="237.17" y1="27.77" x2="242.27" y2="32.87" gradientUnits="userSpaceOnUse">
      <stop offset="0" stop-color="#0a284c"/>
      <stop offset="1" stop-color="#12275f"/>
    </linearGradient>
    <linearGradient id="linear-gradient-8" x1="237.19" y1="27.79" x2="242.25" y2="32.85" gradientUnits="userSpaceOnUse">
      <stop offset="0" stop-color="#0a2749"/>
      <stop offset="1" stop-color="#132962"/>
    </linearGradient>
    <linearGradient id="linear-gradient-9" x1="237.2" y1="27.8" x2="242.24" y2="32.84" gradientUnits="userSpaceOnUse">
      <stop offset="0" stop-color="#0a2647"/>
      <stop offset="1" stop-color="#132a66"/>
    </linearGradient>
    <linearGradient id="linear-gradient-10" x1="237.22" y1="27.82" x2="242.22" y2="32.82" gradientUnits="userSpaceOnUse">
      <stop offset="0" stop-color="#0b2544"/>
      <stop offset="1" stop-color="#142c69"/>
    </linearGradient>
    <linearGradient id="linear-gradient-11" x1="237.23" y1="27.83" x2="242.21" y2="32.81" gradientUnits="userSpaceOnUse">
      <stop offset="0" stop-color="#0b2441"/>
      <stop offset="1" stop-color="#152d6c"/>
    </linearGradient>
    <linearGradient id="linear-gradient-12" x1="237.25" y1="27.85" x2="242.19" y2="32.79" gradientUnits="userSpaceOnUse">
      <stop offset="0" stop-color="#0c233e"/>
      <stop offset="1" stop-color="#162f70"/>
    </linearGradient>
    <linearGradient id="linear-gradient-13" x1="237.26" y1="27.86" x2="242.18" y2="32.78" gradientUnits="userSpaceOnUse">
      <stop offset="0" stop-color="#0c223c"/>
      <stop offset="1" stop-color="#173073"/>
    </linearGradient>
    <linearGradient id="linear-gradient-14" x1="237.28" y1="27.88" x2="242.16" y2="32.76" gradientUnits="userSpaceOnUse">
      <stop offset="0" stop-color="#0c2139"/>
      <stop offset="1" stop-color="#183276"/>
    </linearGradient>
    <linearGradient id="linear-gradient-15" x1="237.29" y1="27.89" x2="242.15" y2="32.75" gradientUnits="userSpaceOnUse">
      <stop offset="0" stop-color="#0d2036"/>
      <stop offset="1" stop-color="#18337a"/>
    </linearGradient>
    <linearGradient id="linear-gradient-16" x1="237.31" y1="27.91" x2="242.13" y2="32.73" gradientUnits="userSpaceOnUse">
      <stop offset="0" stop-color="#0d1e34"/>
      <stop offset="1" stop-color="#19357d"/>
    </linearGradient>
    <linearGradient id="linear-gradient-17" x1="237.32" y1="27.92" x2="242.12" y2="32.72" gradientUnits="userSpaceOnUse">
      <stop offset="0" stop-color="#0d1d31"/>
      <stop offset="1" stop-color="#1a3780"/>
    </linearGradient>
    <linearGradient id="linear-gradient-18" x1="237.34" y1="27.94" x2="242.1" y2="32.7" gradientUnits="userSpaceOnUse">
      <stop offset="0" stop-color="#0e1c2e"/>
      <stop offset="1" stop-color="#1b3883"/>
    </linearGradient>
    <linearGradient id="linear-gradient-19" x1="237.35" y1="27.95" x2="242.09" y2="32.69" gradientUnits="userSpaceOnUse">
      <stop offset="0" stop-color="#0e1b2b"/>
      <stop offset="1" stop-color="#1c3a87"/>
    </linearGradient>
    <linearGradient id="linear-gradient-20" x1="237.37" y1="27.97" x2="242.07" y2="32.67" gradientUnits="userSpaceOnUse">
      <stop offset="0" stop-color="#0f1a29"/>
      <stop offset="1" stop-color="#1c3b8a"/>
    </linearGradient>
    <linearGradient id="_횁책챌청챙첼챠챠청챕_찾챨횪채챔책챠챵_3949" data-name="횁책챌청챙첼챠챠청챕 찾챨횪채챔책챠챵 3949" x1="237.38" y1="27.98" x2="242.06" y2="32.66" gradientUnits="userSpaceOnUse">
      <stop offset="0" stop-color="#0f1926"/>
      <stop offset="1" stop-color="#1d3d8d"/>
    </linearGradient>
    <linearGradient id="linear-gradient-21" x1="237.4" y1="28" x2="242.04" y2="32.64" xlink:href="#linear-gradient-20"/>
    <linearGradient id="linear-gradient-22" x1="237.42" y1="28.02" x2="242.02" y2="32.62" xlink:href="#linear-gradient-19"/>
    <linearGradient id="linear-gradient-23" x1="237.43" y1="28.03" x2="242.01" y2="32.61" xlink:href="#linear-gradient-18"/>
    <linearGradient id="linear-gradient-24" x1="237.45" y1="28.05" x2="241.99" y2="32.59" xlink:href="#linear-gradient-17"/>
    <linearGradient id="linear-gradient-25" x1="237.47" y1="28.07" x2="241.97" y2="32.57" xlink:href="#linear-gradient-16"/>
    <linearGradient id="linear-gradient-26" x1="237.48" y1="28.09" x2="241.95" y2="32.56" xlink:href="#linear-gradient-15"/>
    <linearGradient id="linear-gradient-27" x1="237.5" y1="28.1" x2="241.94" y2="32.54" xlink:href="#linear-gradient-14"/>
    <linearGradient id="linear-gradient-28" x1="237.52" y1="28.12" x2="241.92" y2="32.52" xlink:href="#linear-gradient-13"/>
    <linearGradient id="linear-gradient-29" x1="237.53" y1="28.14" x2="241.9" y2="32.51" xlink:href="#linear-gradient-12"/>
    <linearGradient id="linear-gradient-30" x1="237.55" y1="28.15" x2="241.89" y2="32.49" xlink:href="#linear-gradient-11"/>
    <linearGradient id="linear-gradient-31" x1="237.57" y1="28.17" x2="241.87" y2="32.47" xlink:href="#linear-gradient-10"/>
    <linearGradient id="linear-gradient-32" x1="237.59" y1="28.19" x2="241.85" y2="32.45" xlink:href="#linear-gradient-9"/>
    <linearGradient id="linear-gradient-33" x1="237.6" y1="28.2" x2="241.84" y2="32.44" xlink:href="#linear-gradient-8"/>
    <linearGradient id="linear-gradient-34" x1="237.62" y1="28.22" x2="241.82" y2="32.42" xlink:href="#linear-gradient-7"/>
    <linearGradient id="linear-gradient-35" x1="237.64" y1="28.24" x2="241.8" y2="32.4" xlink:href="#linear-gradient-6"/>
    <linearGradient id="linear-gradient-36" x1="237.65" y1="28.26" x2="241.78" y2="32.39" xlink:href="#linear-gradient-5"/>
    <linearGradient id="linear-gradient-37" x1="237.67" y1="28.27" x2="241.77" y2="32.37" xlink:href="#linear-gradient-4"/>
    <linearGradient id="linear-gradient-38" x1="237.69" y1="28.29" x2="241.75" y2="32.35" xlink:href="#linear-gradient-3"/>
    <linearGradient id="linear-gradient-39" x1="237.7" y1="28.31" x2="241.73" y2="32.34" xlink:href="#linear-gradient-2"/>
    <linearGradient id="linear-gradient-40" x1="237.72" y1="28.32" x2="241.72" y2="32.32" xlink:href="#linear-gradient"/>
    <linearGradient id="_횁책챌청챙첼챠챠청챕_찾챨횪채챔책챠챵_3945-2" data-name="횁책챌청챙첼챠챠청챕 찾챨횪채챔책챠챵 3945" x1="237.74" y1="28.34" x2="241.7" y2="32.3" xlink:href="#_횁책챌청챙첼챠챠청챕_찾챨횪채챔책챠챵_3945"/>
    <linearGradient id="linear-gradient-41" x1="237.76" y1="28.36" x2="241.68" y2="32.28" gradientUnits="userSpaceOnUse">
      <stop offset="0" stop-color="#07305e"/>
      <stop offset="1" stop-color="#0c1d46"/>
    </linearGradient>
    <linearGradient id="linear-gradient-42" x1="237.77" y1="28.38" x2="241.66" y2="32.27" gradientUnits="userSpaceOnUse">
      <stop offset="0" stop-color="#07305c"/>
      <stop offset="1" stop-color="#0d1d45"/>
    </linearGradient>
    <linearGradient id="linear-gradient-43" x1="237.79" y1="28.39" x2="241.65" y2="32.25" gradientUnits="userSpaceOnUse">
      <stop offset="0" stop-color="#07305b"/>
      <stop offset="1" stop-color="#0d1d44"/>
    </linearGradient>
    <linearGradient id="linear-gradient-44" x1="237.81" y1="28.41" x2="241.63" y2="32.23" gradientUnits="userSpaceOnUse">
      <stop offset="0" stop-color="#083059"/>
      <stop offset="1" stop-color="#0d1e43"/>
    </linearGradient>
    <linearGradient id="linear-gradient-45" x1="237.83" y1="28.43" x2="241.61" y2="32.21" gradientUnits="userSpaceOnUse">
      <stop offset="0" stop-color="#083058"/>
      <stop offset="1" stop-color="#0e1e42"/>
    </linearGradient>
    <linearGradient id="linear-gradient-46" x1="237.84" y1="28.45" x2="241.59" y2="32.2" gradientUnits="userSpaceOnUse">
      <stop offset="0" stop-color="#083057"/>
      <stop offset="1" stop-color="#0e1e41"/>
    </linearGradient>
    <linearGradient id="linear-gradient-47" x1="237.86" y1="28.46" x2="241.58" y2="32.18" gradientUnits="userSpaceOnUse">
      <stop offset="0" stop-color="#083055"/>
      <stop offset="1" stop-color="#0e1e40"/>
    </linearGradient>
    <linearGradient id="linear-gradient-48" x1="237.88" y1="28.48" x2="241.56" y2="32.16" gradientUnits="userSpaceOnUse">
      <stop offset="0" stop-color="#083054"/>
      <stop offset="1" stop-color="#0f1f3f"/>
    </linearGradient>
    <linearGradient id="linear-gradient-49" x1="237.9" y1="28.5" x2="241.54" y2="32.14" gradientUnits="userSpaceOnUse">
      <stop offset="0" stop-color="#083053"/>
      <stop offset="1" stop-color="#0f1f3e"/>
    </linearGradient>
    <linearGradient id="linear-gradient-50" x1="237.92" y1="28.52" x2="241.52" y2="32.12" gradientUnits="userSpaceOnUse">
      <stop offset="0" stop-color="#083051"/>
      <stop offset="1" stop-color="#0f1f3c"/>
    </linearGradient>
    <linearGradient id="linear-gradient-51" x1="237.93" y1="28.54" x2="241.5" y2="32.11" gradientUnits="userSpaceOnUse">
      <stop offset="0" stop-color="#093050"/>
      <stop offset="1" stop-color="#0f1f3b"/>
    </linearGradient>
    <linearGradient id="linear-gradient-52" x1="237.95" y1="28.55" x2="241.49" y2="32.09" gradientUnits="userSpaceOnUse">
      <stop offset="0" stop-color="#09304e"/>
      <stop offset="1" stop-color="#10203a"/>
    </linearGradient>
    <linearGradient id="linear-gradient-53" x1="237.97" y1="28.57" x2="241.47" y2="32.07" gradientUnits="userSpaceOnUse">
      <stop offset="0" stop-color="#09304d"/>
      <stop offset="1" stop-color="#102039"/>
    </linearGradient>
    <linearGradient id="linear-gradient-54" x1="237.99" y1="28.59" x2="241.45" y2="32.05" gradientUnits="userSpaceOnUse">
      <stop offset="0" stop-color="#09304c"/>
      <stop offset="1" stop-color="#102038"/>
    </linearGradient>
    <linearGradient id="linear-gradient-55" x1="238" y1="28.61" x2="241.43" y2="32.04" gradientUnits="userSpaceOnUse">
      <stop offset="0" stop-color="#09304a"/>
      <stop offset="1" stop-color="#112037"/>
    </linearGradient>
    <linearGradient id="linear-gradient-56" x1="238.02" y1="28.62" x2="241.42" y2="32.02" gradientUnits="userSpaceOnUse">
      <stop offset="0" stop-color="#093049"/>
      <stop offset="1" stop-color="#112136"/>
    </linearGradient>
    <linearGradient id="linear-gradient-57" x1="238.04" y1="28.64" x2="241.4" y2="32" gradientUnits="userSpaceOnUse">
      <stop offset="0" stop-color="#093048"/>
      <stop offset="1" stop-color="#112135"/>
    </linearGradient>
    <linearGradient id="linear-gradient-58" x1="238.06" y1="28.66" x2="241.38" y2="31.98" gradientUnits="userSpaceOnUse">
      <stop offset="0" stop-color="#0a3046"/>
      <stop offset="1" stop-color="#112133"/>
    </linearGradient>
    <linearGradient id="linear-gradient-59" x1="238.07" y1="28.68" x2="241.36" y2="31.97" gradientUnits="userSpaceOnUse">
      <stop offset="0" stop-color="#0a3045"/>
      <stop offset="1" stop-color="#122232"/>
    </linearGradient>
    <linearGradient id="linear-gradient-60" x1="238.09" y1="28.69" x2="241.35" y2="31.95" gradientUnits="userSpaceOnUse">
      <stop offset="0" stop-color="#0a3043"/>
      <stop offset="1" stop-color="#122231"/>
    </linearGradient>
    <linearGradient id="_횁책챌청챙첼챠챠청챕_찾챨횪채챔책챠챵_3954" data-name="횁책챌청챙첼챠챠청챕 찾챨횪채챔책챠챵 3954" x1="238.11" y1="28.71" x2="241.33" y2="31.93" gradientUnits="userSpaceOnUse">
      <stop offset="0" stop-color="#0a3042"/>
      <stop offset="1" stop-color="#122230"/>
    </linearGradient>
    <linearGradient id="linear-gradient-61" x1="238.13" y1="28.73" x2="241.31" y2="31.91" gradientUnits="userSpaceOnUse">
      <stop offset="0" stop-color="#0a2e3f"/>
      <stop offset="1" stop-color="#12212f"/>
    </linearGradient>
    <linearGradient id="linear-gradient-62" x1="238.15" y1="28.75" x2="241.29" y2="31.89" gradientUnits="userSpaceOnUse">
      <stop offset="0" stop-color="#0b2d3d"/>
      <stop offset="1" stop-color="#12212d"/>
    </linearGradient>
    <linearGradient id="linear-gradient-63" x1="238.16" y1="28.77" x2="241.27" y2="31.88" gradientUnits="userSpaceOnUse">
      <stop offset="0" stop-color="#0b2b3b"/>
      <stop offset="1" stop-color="#12202c"/>
    </linearGradient>
    <linearGradient id="linear-gradient-64" x1="238.18" y1="28.79" x2="241.25" y2="31.86" gradientUnits="userSpaceOnUse">
      <stop offset="0" stop-color="#0b2a38"/>
      <stop offset="1" stop-color="#121f2a"/>
    </linearGradient>
    <linearGradient id="linear-gradient-65" x1="238.2" y1="28.8" x2="241.24" y2="31.84" gradientUnits="userSpaceOnUse">
      <stop offset="0" stop-color="#0c2936"/>
      <stop offset="1" stop-color="#121e29"/>
    </linearGradient>
    <linearGradient id="linear-gradient-66" x1="238.22" y1="28.82" x2="241.22" y2="31.82" gradientUnits="userSpaceOnUse">
      <stop offset="0" stop-color="#0c2734"/>
      <stop offset="1" stop-color="#121e27"/>
    </linearGradient>
    <linearGradient id="linear-gradient-67" x1="238.24" y1="28.84" x2="241.2" y2="31.8" gradientUnits="userSpaceOnUse">
      <stop offset="0" stop-color="#0d2631"/>
      <stop offset="1" stop-color="#121d26"/>
    </linearGradient>
    <linearGradient id="linear-gradient-68" x1="238.26" y1="28.86" x2="241.18" y2="31.78" gradientUnits="userSpaceOnUse">
      <stop offset="0" stop-color="#0d242f"/>
      <stop offset="1" stop-color="#121c24"/>
    </linearGradient>
    <linearGradient id="linear-gradient-69" x1="238.27" y1="28.88" x2="241.16" y2="31.77" gradientUnits="userSpaceOnUse">
      <stop offset="0" stop-color="#0d232d"/>
      <stop offset="1" stop-color="#121b23"/>
    </linearGradient>
    <linearGradient id="linear-gradient-70" x1="238.29" y1="28.9" x2="241.15" y2="31.75" gradientUnits="userSpaceOnUse">
      <stop offset="0" stop-color="#0e212a"/>
      <stop offset="1" stop-color="#121a21"/>
    </linearGradient>
    <linearGradient id="linear-gradient-71" x1="238.31" y1="28.91" x2="241.13" y2="31.73" gradientUnits="userSpaceOnUse">
      <stop offset="0" stop-color="#0e2028"/>
      <stop offset="1" stop-color="#121a20"/>
    </linearGradient>
    <linearGradient id="linear-gradient-72" x1="238.33" y1="28.93" x2="241.11" y2="31.71" gradientUnits="userSpaceOnUse">
      <stop offset="0" stop-color="#0f1f26"/>
      <stop offset="1" stop-color="#12191e"/>
    </linearGradient>
    <linearGradient id="linear-gradient-73" x1="238.35" y1="28.95" x2="241.09" y2="31.69" gradientUnits="userSpaceOnUse">
      <stop offset="0" stop-color="#0f1d24"/>
      <stop offset="1" stop-color="#12181d"/>
    </linearGradient>
    <linearGradient id="linear-gradient-74" x1="238.37" y1="28.97" x2="241.07" y2="31.67" gradientUnits="userSpaceOnUse">
      <stop offset="0" stop-color="#0f1c21"/>
      <stop offset="1" stop-color="#12171b"/>
    </linearGradient>
    <linearGradient id="linear-gradient-75" x1="238.38" y1="28.99" x2="241.05" y2="31.66" gradientUnits="userSpaceOnUse">
      <stop offset="0" stop-color="#101a1f"/>
      <stop offset="1" stop-color="#12171a"/>
    </linearGradient>
    <linearGradient id="linear-gradient-76" x1="238.4" y1="29.01" x2="241.04" y2="31.64" gradientUnits="userSpaceOnUse">
      <stop offset="0" stop-color="#10191d"/>
      <stop offset="1" stop-color="#121618"/>
    </linearGradient>
    <linearGradient id="linear-gradient-77" x1="238.42" y1="29.02" x2="241.02" y2="31.62" gradientUnits="userSpaceOnUse">
      <stop offset="0" stop-color="#10181a"/>
      <stop offset="1" stop-color="#121517"/>
    </linearGradient>
    <linearGradient id="linear-gradient-78" x1="238.44" y1="29.04" x2="241" y2="31.6" gradientUnits="userSpaceOnUse">
      <stop offset="0" stop-color="#111618"/>
      <stop offset="1" stop-color="#121415"/>
    </linearGradient>
    <linearGradient id="linear-gradient-79" x1="238.46" y1="29.06" x2="240.98" y2="31.58" gradientUnits="userSpaceOnUse">
      <stop offset="0" stop-color="#111516"/>
      <stop offset="1" stop-color="#121414"/>
    </linearGradient>
    <linearGradient id="linear-gradient-80" x1="238.48" y1="29.08" x2="240.96" y2="31.56" gradientUnits="userSpaceOnUse">
      <stop offset="0" stop-color="#121313"/>
      <stop offset="1" stop-color="#121312"/>
    </linearGradient>
    <filter id="luminosity-noclip" x="238.06" y="-1466.17" width="93.14" height="1497.97" color-interpolation-filters="sRGB" filterUnits="userSpaceOnUse">
      <feFlood flood-color="#fff" result="bg"/>
      <feBlend in="SourceGraphic" in2="bg"/>
    </filter>
    <mask id="mask-1" x="238.06" y="-1466.17" width="93.14" height="1497.97" maskUnits="userSpaceOnUse"/>
    <radialGradient id="_횁책챌청챙첼챠챠청챕_찾챨횪채챔책챠챵_4019" data-name="횁책챌청챙첼챠챠청챕 찾챨횪채챔책챠챵 4019" cx="-8465.51" cy="3881.42" fx="-8465.51" fy="3881.42" r="4.08" gradientTransform="translate(1365.23 -7026.41) rotate(-48.05) scale(.71 1) skewX(.04)" gradientUnits="userSpaceOnUse">
      <stop offset="0" stop-color="#fff"/>
      <stop offset=".13" stop-color="#fbfbfb"/>
      <stop offset=".25" stop-color="#efefef"/>
      <stop offset=".38" stop-color="#dbdbdb"/>
      <stop offset=".5" stop-color="#bebebe"/>
      <stop offset=".63" stop-color="#9a9a9a"/>
      <stop offset=".75" stop-color="#6e6e6e"/>
      <stop offset=".88" stop-color="#3b3b3b"/>
      <stop offset="1" stop-color="#000"/>
    </radialGradient>
    <mask id="mask" x="238.06" y="24.86" width="7.2" height="6.94" maskUnits="userSpaceOnUse">
      <g mask="url(#mask-1)">
        <path d="M243.59,26.18c1.68,1.5,2.17,3.69,1.1,4.87-1.07,1.19-3.29.93-4.97-.57-1.68-1.5-2.17-3.69-1.1-4.87,1.07-1.19,3.29-.93,4.97.57Z" fill="url(#_횁책챌청챙첼챠챠청챕_찾챨횪채챔책챠챵_4019)"/>
      </g>
    </mask>
    <filter id="luminosity-noclip-2" x="233.84" y="-1453.21" width="85.13" height="1489.48" color-interpolation-filters="sRGB" filterUnits="userSpaceOnUse">
      <feFlood flood-color="#fff" result="bg"/>
      <feBlend in="SourceGraphic" in2="bg"/>
    </filter>
    <mask id="mask-3" x="233.84" y="-1453.21" width="85.13" height="1489.48" maskUnits="userSpaceOnUse"/>
    <radialGradient id="_횁책챌청챙첼챠챠청챕_찾챨횪채챔책챠챵_4019-2" data-name="횁책챌청챙첼챠챠청챕 찾챨횪채챔책챠챵 4019" cx="-8474.18" cy="3881.27" fx="-8474.18" fy="3881.27" r="4.08" xlink:href="#_횁책챌청챙첼챠챠청챕_찾챨횪채챔책챠챵_4019"/>
    <mask id="mask-2" x="233.84" y="29.33" width="7.2" height="6.94" maskUnits="userSpaceOnUse">
      <g mask="url(#mask-3)">
        <path d="M239.37,30.65c1.68,1.5,2.17,3.69,1.1,4.87-1.07,1.19-3.29.93-4.97-.57-1.68-1.5-2.17-3.69-1.1-4.87,1.07-1.19,3.29-.93,4.97.57Z" fill="url(#_횁책챌청챙첼챠챠청챕_찾챨횪채챔책챠챵_4019-2)"/>
      </g>
    </mask>
    <filter id="luminosity-noclip-3" x="238.91" y="-1461.76" width="83.16" height="1491.27" color-interpolation-filters="sRGB" filterUnits="userSpaceOnUse">
      <feFlood flood-color="#fff" result="bg"/>
      <feBlend in="SourceGraphic" in2="bg"/>
    </filter>
    <mask id="mask-5" x="238.91" y="-1461.76" width="83.16" height="1491.27" maskUnits="userSpaceOnUse"/>
    <radialGradient id="_횁책챌청챙첼챠챠청챕_찾챨횪채챔책챠챵_4020" data-name="횁책챌청챙첼챠챠청챕 찾챨횪채챔책챠챵 4020" cx="-8460.93" cy="3880.32" fx="-8460.93" fy="3880.32" r="1.72" gradientTransform="translate(2064.99 -7805) rotate(-48.05) scale(.83 1) skewX(.04)" gradientUnits="userSpaceOnUse">
      <stop offset="0" stop-color="#fff"/>
      <stop offset=".09" stop-color="#d6d6d6"/>
      <stop offset=".23" stop-color="#9e9e9e"/>
      <stop offset=".36" stop-color="#6d6d6d"/>
      <stop offset=".5" stop-color="#464646"/>
      <stop offset=".63" stop-color="#272727"/>
      <stop offset=".76" stop-color="#111"/>
      <stop offset=".89" stop-color="#040404"/>
      <stop offset="1" stop-color="#000"/>
    </radialGradient>
    <mask id="mask-4" x="238.91" y="26.38" width="3.2" height="3.13" maskUnits="userSpaceOnUse">
      <g mask="url(#mask-5)">
        <path d="M241.47,26.88c.71.64.85,1.63.32,2.21-.53.59-1.53.55-2.24-.08-.71-.64-.85-1.63-.32-2.21.53-.59,1.53-.55,2.24.08Z" fill="url(#_횁책챌청챙첼챠챠청챕_찾챨횪채챔책챠챵_4020)"/>
      </g>
    </mask>
    <filter id="luminosity-noclip-4" x="236.11" y="-1448.54" width="77.84" height="1482.62" color-interpolation-filters="sRGB" filterUnits="userSpaceOnUse">
      <feFlood flood-color="#fff" result="bg"/>
      <feBlend in="SourceGraphic" in2="bg"/>
    </filter>
    <mask id="mask-7" x="236.11" y="-1448.54" width="77.84" height="1482.62" maskUnits="userSpaceOnUse"/>
    <radialGradient id="_횁책챌청챙첼챠챠청챕_찾챨횪채챔책챠챵_4022" data-name="횁책챌청챙첼챠챠청챕 찾챨횪채챔책챠챵 4022" cx="-8467.25" cy="3881.28" fx="-8467.25" fy="3881.28" r="1.72" gradientTransform="translate(2064.99 -7805) rotate(-48.05) scale(.83 1) skewX(.04)" gradientUnits="userSpaceOnUse">
      <stop offset="0" stop-color="#fff"/>
      <stop offset=".09" stop-color="#f8f8f8"/>
      <stop offset=".22" stop-color="#e7e7e7"/>
      <stop offset=".36" stop-color="#cacaca"/>
      <stop offset=".52" stop-color="#a2a2a2"/>
      <stop offset=".69" stop-color="#6e6e6e"/>
      <stop offset=".87" stop-color="#313131"/>
      <stop offset="1" stop-color="#000"/>
    </radialGradient>
    <mask id="mask-6" x="236.11" y="30.94" width="3.2" height="3.13" maskUnits="userSpaceOnUse">
      <g mask="url(#mask-7)">
        <path d="M238.66,31.44c.71.63.85,1.63.32,2.21-.53.59-1.53.55-2.24-.08-.71-.63-.85-1.63-.32-2.21.53-.59,1.53-.55,2.24.08Z" fill="url(#_횁책챌청챙첼챠챠청챕_찾챨횪채챔책챠챵_4022)"/>
      </g>
    </mask>
    <filter id="luminosity-noclip-5" x="132.02" y="-1462.46" width="49.38" height="1496.96" color-interpolation-filters="sRGB" filterUnits="userSpaceOnUse">
      <feFlood flood-color="#fff" result="bg"/>
      <feBlend in="SourceGraphic" in2="bg"/>
    </filter>
    <mask id="mask-9" x="132.02" y="-1462.46" width="49.38" height="1496.96" maskUnits="userSpaceOnUse"/>
    <filter id="luminosity-noclip-6" x="132.02" y="-1462.46" width="49.38" height="1496.96" color-interpolation-filters="sRGB" filterUnits="userSpaceOnUse">
      <feFlood flood-color="#fff" result="bg"/>
      <feBlend in="SourceGraphic" in2="bg"/>
    </filter>
    <mask id="mask-10" x="132.02" y="-1462.46" width="49.38" height="1496.96" maskUnits="userSpaceOnUse"/>
    <linearGradient id="_횁책챌청챙첼챠챠청챕_찾챨횪채챔책챠챵_235" data-name="횁책챌청챙첼챠챠청챕 찾챨횪채챔책챠챵 235" x1="176.55" y1="30.32" x2="181.4" y2="30.32" gradientUnits="userSpaceOnUse">
      <stop offset="0" stop-color="#fff"/>
      <stop offset="1" stop-color="#000"/>
    </linearGradient>
    <mask id="mask-8" x="176.55" y="26.14" width="4.85" height="8.36" maskUnits="userSpaceOnUse">
      <g mask="url(#mask-9)">
        <g mask="url(#mask-10)">
          <path d="M181.4,26.14h-.67c-2.31,0-4.18,1.87-4.18,4.18s1.87,4.18,4.18,4.18h.67v-8.36Z" fill="url(#_횁책챌청챙첼챠챠청챕_찾챨횪채챔책챠챵_235)"/>
        </g>
      </g>
    </mask>
    <filter id="luminosity-noclip-7" x="217.51" y="-1462.46" width="50.47" height="1496.96" color-interpolation-filters="sRGB" filterUnits="userSpaceOnUse">
      <feFlood flood-color="#fff" result="bg"/>
      <feBlend in="SourceGraphic" in2="bg"/>
    </filter>
    <mask id="mask-12" x="217.51" y="-1462.46" width="50.47" height="1496.96" maskUnits="userSpaceOnUse"/>
    <filter id="luminosity-noclip-8" x="217.51" y="-1462.46" width="50.47" height="1496.96" color-interpolation-filters="sRGB" filterUnits="userSpaceOnUse">
      <feFlood flood-color="#fff" result="bg"/>
      <feBlend in="SourceGraphic" in2="bg"/>
    </filter>
    <mask id="mask-13" x="217.51" y="-1462.46" width="50.47" height="1496.96" maskUnits="userSpaceOnUse"/>
    <linearGradient id="_횁책챌청챙첼챠챠청챕_찾챨횪채챔책챠챵_212" data-name="횁책챌청챙첼챠챠청챕 찾챨횪채챔책챠챵 212" x1="217.51" y1="30.32" x2="223.45" y2="30.32" gradientUnits="userSpaceOnUse">
      <stop offset="0" stop-color="#000"/>
      <stop offset="1" stop-color="#fff"/>
    </linearGradient>
    <mask id="mask-11" x="217.51" y="26.14" width="5.94" height="8.36" maskUnits="userSpaceOnUse">
      <g mask="url(#mask-12)">
        <g mask="url(#mask-13)">
          <path d="M219.27,26.14h-1.76v8.36h1.76c2.31,0,4.18-1.87,4.18-4.18s-1.87-4.18-4.18-4.18Z" fill="url(#_횁책챌청챙첼챠챠청챕_찾챨횪채챔책챠챵_212)"/>
        </g>
      </g>
    </mask>
  </defs>
  <g id="Layer_1-2" data-name="Layer 1">
    <g>
      <g>
        <g>
          <g>
            <path d="M397.21,207.46h1.62c.64,0,1.16.52,1.16,1.16v94c0,.64-.52,1.16-1.16,1.16h-1.62v-96.33h0Z" fill="#020201"/>
            <path d="M397.21,208.54h1.64c.4,0,.73.33.73.73v92.7c0,.4-.33.73-.73.73h-1.64v-94.17h0Z" fill="#e2e2da"/>
            <path d="M397.21,209.26h1.32c.25,0,.45.2.45.45v91.83c0,.25-.2.45-.45.45h-1.32v-92.72h0Z" fill="url(#_횁책챌청챙첼챠챠청챕_찾챨횪채챔책챠챵_1511)"/>
          </g>
          <g>
            <g>
              <path d="M0,186.84h1.62c.64,0,1.16.52,1.16,1.16v58.09c0,.64-.52,1.16-1.16,1.16H0v-60.42h0Z" transform="translate(2.79 434.09) rotate(180)" fill="#020201"/>
              <path d="M.42,187.92h1.64c.4,0,.73.33.73.73v56.79c0,.4-.33.73-.73.73H.42v-58.25H.42Z" transform="translate(3.2 434.1) rotate(180)" fill="#e2e2da"/>
              <path d="M1.02,188.64h1.32c.25,0,.45.2.45.45v55.92c0,.25-.2.45-.45.45h-1.32v-56.81h0Z" transform="translate(3.81 434.1) rotate(180)" fill="url(#_횁책챌청챙첼챠챠청챕_찾챨횪채챔책챠챵_1511-2)"/>
            </g>
            <g>
              <path d="M0,128.68h1.62c.64,0,1.16.52,1.16,1.16v27.95c0,.64-.52,1.16-1.16,1.16H0v-30.27h0Z" transform="translate(2.79 287.64) rotate(180)" fill="#020201"/>
              <path d="M.42,129.76h1.64c.4,0,.73.33.73.73v26.65c0,.4-.33.73-.73.73H.42v-28.11H.42Z" transform="translate(3.2 287.64) rotate(180)" fill="#e2e2da"/>
              <path d="M1.02,130.48h1.32c.25,0,.45.2.45.45v25.78c0,.25-.2.45-.45.45h-1.32v-26.67h0Z" transform="translate(3.81 287.64) rotate(180)" fill="url(#_횁책챌청챙첼챠챠청챕_찾챨횪채챔책챠챵_1511-3)"/>
            </g>
            <g>
              <path d="M0,263.9h1.62c.64,0,1.16.52,1.16,1.16v58.09c0,.64-.52,1.16-1.16,1.16H0v-60.42h0Z" transform="translate(2.79 588.22) rotate(180)" fill="#020201"/>
              <path d="M.42,264.98h1.64c.4,0,.73.33.73.73v56.79c0,.4-.33.73-.73.73H.42v-58.26H.42Z" transform="translate(3.2 588.22) rotate(180)" fill="#e2e2da"/>
              <path d="M1.02,265.7h1.32c.25,0,.45.2.45.45v55.92c0,.25-.2.45-.45.45h-1.32v-56.81h0Z" transform="translate(3.81 588.22) rotate(180)" fill="url(#_횁책챌청챙첼챠챠청챕_찾챨횪채챔책챠챵_1511-4)"/>
            </g>
          </g>
        </g>
        <g>
          <path d="M327,810H73c-54.59,0-70.48-35.88-70.48-70.44V70.44C2.52,35.88,18.42,0,73,0h253.99c54.58,0,70.48,35.88,70.48,70.44v669.12c0,34.56-15.89,70.44-70.48,70.44Z" fill="#020201"/>
          <path d="M73,809.48c-24.8,0-43.41-7.42-55.3-22.07-12.11-14.91-14.65-34.25-14.65-47.85V70.44c0-13.6,2.54-32.94,14.65-47.85C29.6,7.95,48.2.52,73,.52h253.99c24.8,0,43.41,7.42,55.3,22.07,12.11,14.91,14.65,34.25,14.65,47.85v669.12c0,13.6-2.54,32.94-14.65,47.85-11.89,14.64-30.5,22.07-55.3,22.07H73Z" fill="#ff0"/>
          <g>
            <path d="M73,809.48c-24.8,0-43.41-7.42-55.3-22.07-12.11-14.91-14.65-34.25-14.65-47.85V70.44c0-13.6,2.54-32.94,14.65-47.85C29.6,7.95,48.2.52,73,.52h253.99c24.8,0,43.41,7.42,55.3,22.07,12.11,14.91,14.65,34.25,14.65,47.85v669.12c0,13.6-2.54,32.94-14.65,47.85-11.89,14.64-30.5,22.07-55.3,22.07H73Z" fill="#52504c"/>
            <path d="M73,809.24c-24.73,0-43.27-7.4-55.12-21.98-12.07-14.85-14.6-34.14-14.6-47.7V70.44c0-13.56,2.53-32.85,14.6-47.7C29.73,8.16,48.28.76,73,.76h253.99c24.72,0,43.27,7.39,55.12,21.98,12.07,14.85,14.6,34.14,14.6,47.7v669.12c0,13.56-2.53,32.85-14.6,47.7-11.85,14.58-30.39,21.98-55.12,21.98H73Z" fill="#51504b"/>
            <path d="M73,809c-24.65,0-43.13-7.37-54.94-21.89-12.02-14.8-14.55-34.03-14.55-47.55V70.44c0-13.52,2.52-32.75,14.55-47.55C29.87,8.36,48.35,1,73,1h253.99c24.65,0,43.13,7.37,54.93,21.89,12.02,14.8,14.55,34.03,14.55,47.55v669.12c0,13.52-2.52,32.75-14.55,47.55-11.8,14.53-30.28,21.89-54.93,21.89H73Z" fill="#51504b"/>
            <path d="M73,808.77c-24.58,0-43-7.34-54.75-21.81-11.98-14.75-14.49-33.92-14.49-47.4V70.44c0-13.49,2.51-32.66,14.49-47.4C30.01,8.57,48.43,1.23,73,1.23h253.99c24.58,0,43,7.34,54.75,21.8,11.98,14.75,14.49,33.92,14.49,47.4v669.12c0,13.49-2.51,32.66-14.49,47.4-11.75,14.47-30.18,21.81-54.75,21.81H73Z" fill="#51504b"/>
            <path d="M73,808.53c-24.5,0-42.86-7.31-54.57-21.72-11.94-14.69-14.44-33.81-14.44-47.25V70.44c0-13.45,2.5-32.56,14.44-47.26C30.14,8.77,48.5,1.47,73,1.47h253.99c24.5,0,42.86,7.31,54.57,21.72,11.94,14.69,14.44,33.81,14.44,47.26v669.12c0,13.45-2.51,32.56-14.44,47.25-11.71,14.41-30.07,21.72-54.57,21.72H73Z" fill="#51504b"/>
            <path d="M73,808.3c-24.43,0-42.73-7.28-54.39-21.63-11.89-14.64-14.39-33.7-14.39-47.11V70.44c0-13.41,2.5-32.47,14.39-47.11C30.28,8.98,48.58,1.7,73,1.7h253.99c24.43,0,42.73,7.28,54.39,21.63,11.89,14.64,14.39,33.7,14.39,47.11v669.12c0,13.41-2.5,32.47-14.39,47.11-11.66,14.35-29.96,21.63-54.39,21.63H73Z" fill="#51504b"/>
            <path d="M73,808.06c-24.35,0-42.59-7.25-54.2-21.54-11.85-14.58-14.34-33.59-14.34-46.96V70.44c0-13.37,2.49-32.37,14.34-46.96C30.41,9.19,48.65,1.94,73,1.94h253.99c24.35,0,42.59,7.25,54.2,21.54,11.85,14.59,14.34,33.59,14.34,46.96v669.12c0,13.37-2.49,32.37-14.34,46.96-11.61,14.29-29.85,21.54-54.2,21.54H73Z" fill="#51504b"/>
            <path d="M73,807.82c-24.28,0-42.45-7.22-54.02-21.46-11.81-14.53-14.28-33.48-14.28-46.81V70.44c0-13.33,2.48-32.28,14.28-46.81C30.55,9.39,48.73,2.18,73,2.18h253.99c24.28,0,42.45,7.22,54.02,21.46,11.81,14.53,14.28,33.48,14.28,46.81v669.12c0,13.33-2.48,32.28-14.28,46.81-11.57,14.24-29.74,21.46-54.02,21.46H73Z" fill="#51504b"/>
            <path d="M73,807.59c-24.2,0-42.32-7.19-53.84-21.37-11.76-14.48-14.23-33.36-14.23-46.66V70.44c0-13.3,2.47-32.18,14.23-46.66C30.69,9.6,48.8,2.41,73,2.41h253.99c24.2,0,42.32,7.19,53.84,21.37,11.76,14.48,14.23,33.37,14.23,46.66v669.12c0,13.29-2.47,32.18-14.23,46.66-11.52,14.18-29.63,21.37-53.84,21.37H73Z" fill="#51504b"/>
            <path d="M73,807.35c-24.13,0-42.18-7.16-53.65-21.28-11.72-14.42-14.18-33.25-14.18-46.51V70.44c0-13.26,2.46-32.09,14.18-46.51C30.82,9.81,48.87,2.65,73,2.65h253.99c24.13,0,42.18,7.16,53.65,21.28,11.72,14.42,14.18,33.25,14.18,46.51v669.12c0,13.26-2.46,32.09-14.18,46.51-11.47,14.12-29.52,21.28-53.65,21.28H73Z" fill="#51504b"/>
            <path d="M73,807.12c-24.05,0-42.04-7.13-53.47-21.19-11.68-14.37-14.12-33.14-14.12-46.36V70.44c0-13.22,2.45-31.99,14.12-46.36C30.96,10.01,48.95,2.88,73,2.88h253.99c24.05,0,42.04,7.13,53.47,21.19,11.67,14.37,14.12,33.14,14.12,46.36v669.12c0,13.22-2.45,31.99-14.12,46.36-11.43,14.06-29.42,21.19-53.47,21.19H73Z" fill="#51504a"/>
            <path d="M73,806.88c-23.98,0-41.91-7.1-53.29-21.11-11.63-14.32-14.07-33.03-14.07-46.21V70.44c0-13.18,2.44-31.9,14.07-46.21C31.1,10.22,49.02,3.12,73,3.12h253.99c23.98,0,41.91,7.1,53.29,21.11,11.63,14.32,14.07,33.03,14.07,46.21v669.12c0,13.18-2.44,31.9-14.07,46.21-11.38,14.01-29.31,21.11-53.29,21.11H73Z" fill="#514f4a"/>
            <path d="M73,806.65c-23.91,0-41.77-7.07-53.1-21.02-11.59-14.26-14.02-32.92-14.02-46.07V70.44c0-13.14,2.43-31.8,14.02-46.07C31.23,10.43,49.1,3.36,73,3.36h253.99c23.9,0,41.77,7.07,53.1,21.02,11.59,14.26,14.02,32.92,14.02,46.07v669.12c0,13.14-2.43,31.8-14.02,46.07-11.33,13.95-29.2,21.02-53.1,21.02H73Z" fill="#514f4a"/>
            <path d="M73,806.41c-23.83,0-41.64-7.04-52.92-20.93-11.54-14.21-13.97-32.81-13.97-45.92V70.44c0-13.1,2.42-31.71,13.97-45.92C31.37,10.63,49.17,3.59,73,3.59h253.99c23.83,0,41.64,7.04,52.92,20.93,11.54,14.21,13.97,32.81,13.97,45.92v669.12c0,13.1-2.42,31.71-13.97,45.92-11.28,13.89-29.09,20.93-52.92,20.93H73Z" fill="#514f4a"/>
            <path d="M73,806.17c-23.76,0-41.5-7.01-52.74-20.85-11.5-14.16-13.91-32.7-13.91-45.77V70.44c0-13.07,2.41-31.61,13.91-45.77C31.5,10.84,49.25,3.83,73,3.83h253.99c23.76,0,41.5,7.01,52.74,20.85,11.5,14.16,13.91,32.7,13.91,45.77v669.12c0,13.07-2.41,31.61-13.91,45.77-11.24,13.83-28.98,20.85-52.74,20.85H73Z" fill="#514f4a"/>
            <path d="M73,805.94c-23.68,0-41.36-6.98-52.55-20.76-11.46-14.1-13.86-32.59-13.86-45.62V70.44c0-13.03,2.4-31.52,13.86-45.62C31.64,11.05,49.32,4.06,73,4.06h253.99c23.68,0,41.36,6.98,52.55,20.76,11.46,14.1,13.86,32.59,13.86,45.62v669.12c0,13.03-2.4,31.52-13.86,45.62-11.19,13.77-28.87,20.76-52.55,20.76H73Z" fill="#514f4a"/>
            <path d="M73,805.7c-23.61,0-41.23-6.96-52.37-20.67-11.41-14.05-13.81-32.48-13.81-45.47V70.44c0-12.99,2.4-31.42,13.81-45.47C31.78,11.25,49.4,4.3,73,4.3h253.99c23.61,0,41.23,6.95,52.37,20.67,11.41,14.05,13.81,32.48,13.81,45.47v669.12c0,12.99-2.4,31.42-13.81,45.47-11.14,13.72-28.76,20.67-52.37,20.67H73Z" fill="#514f4a"/>
            <path d="M73,805.47c-23.53,0-41.09-6.93-52.19-20.58-11.37-13.99-13.76-32.37-13.76-45.32V70.44c0-12.95,2.39-31.33,13.76-45.32C31.91,11.46,49.47,4.53,73,4.53h253.99c23.53,0,41.09,6.93,52.19,20.58,11.37,13.99,13.75,32.37,13.75,45.32v669.12c0,12.95-2.39,31.33-13.75,45.32-11.1,13.66-28.65,20.58-52.19,20.58H73Z" fill="#514f4a"/>
            <path d="M73,805.23c-23.46,0-40.95-6.9-52-20.5-11.33-13.94-13.7-32.26-13.7-45.17V70.44c0-12.91,2.38-31.23,13.7-45.17,11.05-13.6,28.55-20.5,52-20.5h253.99c23.46,0,40.95,6.9,52,20.5,11.32,13.94,13.7,32.26,13.7,45.17v669.12c0,12.91-2.38,31.23-13.7,45.17-11.05,13.6-28.55,20.5-52,20.5H73Z" fill="#514f4a"/>
            <path d="M73,804.99c-23.38,0-40.82-6.87-51.82-20.41-11.28-13.89-13.65-32.15-13.65-45.02V70.44c0-12.88,2.37-31.14,13.65-45.03,11-13.54,28.44-20.41,51.82-20.41h253.99c23.38,0,40.82,6.87,51.82,20.41,11.28,13.89,13.65,32.15,13.65,45.03v669.12c0,12.87-2.37,31.14-13.65,45.02-11,13.54-28.44,20.41-51.82,20.41H73Z" fill="#514f49"/>
            <path d="M73,804.76c-23.31,0-40.68-6.84-51.64-20.32-11.24-13.83-13.6-32.04-13.6-44.88V70.44c0-12.84,2.36-31.04,13.6-44.88,10.95-13.48,28.33-20.32,51.64-20.32h253.99c23.31,0,40.68,6.84,51.64,20.32,11.24,13.83,13.6,32.04,13.6,44.88v669.12c0,12.84-2.36,31.04-13.6,44.88-10.96,13.48-28.33,20.32-51.64,20.32H73Z" fill="#504f49"/>
          </g>
          <g>
            <path d="M73,2.88c-24.05,0-42.04,7.13-53.47,21.19-11.67,14.37-14.12,33.14-14.12,46.36v669.12c0,13.22,2.45,31.99,14.12,46.36,11.43,14.06,29.42,21.19,53.47,21.19h253.99c24.05,0,42.04-7.13,53.47-21.19,11.67-14.37,14.12-33.14,14.12-46.36V70.44c0-13.22-2.45-31.99-14.12-46.36-11.43-14.06-29.42-21.19-53.47-21.19H73ZM73,808.95c-24.63,0-43.1-7.36-54.89-21.87-12.01-14.79-14.54-34-14.54-47.52V70.44c0-13.52,2.52-32.73,14.54-47.52C29.9,8.41,48.37,1.05,73,1.05h253.99c24.63,0,43.1,7.36,54.89,21.87,12.01,14.79,14.54,34,14.54,47.52v669.12c0,13.52-2.52,32.73-14.54,47.52-11.79,14.51-30.26,21.87-54.89,21.87H73Z" fill="#52504c" opacity="0"/>
            <path d="M73,2.83c-24.07,0-42.07,7.14-53.51,21.21-11.68,14.38-14.14,33.17-14.14,46.39v669.12c0,13.23,2.45,32.01,14.14,46.39,11.44,14.08,29.44,21.21,53.51,21.21h253.99c24.07,0,42.07-7.14,53.51-21.21,11.68-14.38,14.14-33.17,14.14-46.39V70.44c0-13.23-2.45-32.01-14.14-46.39-11.44-14.08-29.44-21.21-53.51-21.21H73ZM73,808.9c-24.62,0-43.08-7.35-54.86-21.85-12.01-14.78-14.52-33.98-14.52-47.49V70.44c0-13.51,2.52-32.71,14.52-47.49C29.93,8.45,48.38,1.1,73,1.1h253.99c24.62,0,43.08,7.35,54.86,21.85,12,14.78,14.52,33.98,14.52,47.49v669.12c0,13.51-2.52,32.71-14.52,47.49-11.78,14.5-30.24,21.85-54.86,21.85H73Z" fill="#5b5954" opacity=".06"/>
            <path d="M73,2.79c-24.09,0-42.1,7.14-53.55,21.23-11.69,14.39-14.15,33.19-14.15,46.42v669.12c0,13.23,2.45,32.03,14.15,46.42,11.45,14.09,29.46,21.23,53.55,21.23h253.99c24.09,0,42.1-7.14,53.55-21.23,11.69-14.39,14.15-33.19,14.15-46.42V70.44c0-13.23-2.45-32.03-14.15-46.42-11.44-14.09-29.46-21.23-53.55-21.23H73ZM73,808.85c-24.6,0-43.05-7.35-54.82-21.84-12-14.77-14.51-33.96-14.51-47.46V70.44c0-13.5,2.52-32.69,14.51-47.46C29.96,8.49,48.4,1.15,73,1.15h253.99c24.6,0,43.05,7.35,54.82,21.84,12,14.77,14.51,33.96,14.51,47.46v669.12c0,13.5-2.52,32.69-14.51,47.46-11.77,14.49-30.22,21.84-54.82,21.84H73Z" fill="#64625d" opacity=".12"/>
            <path d="M73,2.74c-24.1,0-42.13,7.15-53.58,21.25-11.7,14.4-14.16,33.21-14.16,46.46v669.12c0,13.24,2.46,32.05,14.16,46.46,11.45,14.1,29.48,21.25,53.58,21.25h253.99c24.1,0,42.13-7.15,53.58-21.25,11.7-14.4,14.16-33.21,14.16-46.46V70.44c0-13.24-2.46-32.05-14.16-46.46-11.45-14.1-29.48-21.25-53.58-21.25H73ZM73,808.8c-24.59,0-43.02-7.34-54.78-21.82-11.99-14.76-14.5-33.94-14.5-47.43V70.44c0-13.49,2.52-32.67,14.5-47.43C29.98,8.54,48.42,1.2,73,1.2h253.99c24.59,0,43.02,7.34,54.78,21.82,11.99,14.75,14.5,33.93,14.5,47.43v669.12c0,13.49-2.52,32.67-14.5,47.43-11.76,14.48-30.19,21.82-54.78,21.82H73Z" fill="#6d6b66" opacity=".19"/>
            <path d="M73,2.69c-24.12,0-42.16,7.16-53.62,21.27-11.71,14.41-14.17,33.24-14.17,46.49v669.12c0,13.25,2.46,32.07,14.17,46.49,11.46,14.11,29.51,21.27,53.62,21.27h253.99c24.12,0,42.16-7.15,53.62-21.27,11.71-14.42,14.17-33.24,14.17-46.49V70.44c0-13.25-2.46-32.07-14.17-46.49-11.46-14.11-29.51-21.27-53.62-21.27H73ZM73,808.76c-24.57,0-42.99-7.33-54.74-21.8-11.98-14.74-14.49-33.91-14.49-47.4V70.44c0-13.48,2.51-32.65,14.49-47.4C30.01,8.58,48.43,1.24,73,1.24h253.99c24.57,0,42.99,7.33,54.74,21.8,11.98,14.74,14.49,33.91,14.49,47.4v669.12c0,13.48-2.51,32.65-14.49,47.4-11.75,14.46-30.17,21.8-54.74,21.8H73Z" fill="#76746f" opacity=".25"/>
            <path d="M73,2.64c-24.13,0-42.19,7.16-53.66,21.29-11.72,14.43-14.18,33.26-14.18,46.52v669.12c0,13.26,2.46,32.09,14.18,46.52,11.47,14.12,29.53,21.28,53.66,21.28h253.99c24.13,0,42.19-7.16,53.66-21.28,11.72-14.43,14.18-33.26,14.18-46.52V70.44c0-13.26-2.46-32.09-14.18-46.52-11.47-14.12-29.53-21.29-53.66-21.29H73ZM73,808.71c-24.56,0-42.96-7.33-54.7-21.78-11.97-14.73-14.48-33.89-14.48-47.36V70.44c0-13.48,2.51-32.63,14.48-47.36C30.04,8.62,48.45,1.29,73,1.29h253.99c24.56,0,42.96,7.33,54.7,21.78,11.97,14.73,14.48,33.89,14.48,47.36v669.12c0,13.48-2.51,32.63-14.48,47.36-11.74,14.45-30.15,21.78-54.7,21.78H73Z" fill="#7f7e78" opacity=".31"/>
            <path d="M73,2.59c-24.15,0-42.21,7.17-53.7,21.3-11.73,14.44-14.19,33.28-14.19,46.55v669.12c0,13.27,2.46,32.11,14.19,46.55,11.48,14.14,29.55,21.3,53.7,21.3h253.99c24.15,0,42.21-7.17,53.7-21.3,11.73-14.44,14.19-33.28,14.19-46.55V70.44c0-13.27-2.46-32.11-14.19-46.55-11.48-14.14-29.55-21.3-53.7-21.3H73ZM73,808.66c-24.54,0-42.93-7.32-54.66-21.76-11.96-14.72-14.47-33.87-14.47-47.33V70.44c0-13.47,2.51-32.61,14.47-47.33C30.07,8.67,48.46,1.34,73,1.34h253.99c24.54,0,42.93,7.32,54.67,21.76,11.96,14.72,14.47,33.87,14.47,47.33v669.12c0,13.47-2.51,32.61-14.47,47.33-11.73,14.44-30.12,21.76-54.67,21.76H73Z" fill="#888781" opacity=".38"/>
            <path d="M73,2.54c-24.16,0-42.24,7.17-53.74,21.32-11.74,14.45-14.2,33.31-14.2,46.58v669.12c0,13.27,2.46,32.13,14.2,46.58,11.49,14.15,29.57,21.32,53.74,21.32h253.99c24.16,0,42.24-7.17,53.74-21.32,11.74-14.45,14.2-33.31,14.2-46.58V70.44c0-13.27-2.46-32.13-14.2-46.58-11.49-14.15-29.57-21.32-53.74-21.32H73ZM73,808.61c-24.53,0-42.9-7.32-54.63-21.74-11.95-14.71-14.46-33.84-14.46-47.3V70.44c0-13.46,2.51-32.59,14.46-47.3C30.1,8.71,48.48,1.39,73,1.39h253.99c24.53,0,42.91,7.32,54.63,21.75,11.95,14.71,14.46,33.84,14.46,47.3v669.12c0,13.46-2.51,32.59-14.46,47.3-11.72,14.43-30.1,21.74-54.63,21.74H73Z" fill="#91908a" opacity=".44"/>
            <path d="M73,2.49c-24.18,0-42.27,7.18-53.77,21.34-11.75,14.46-14.21,33.33-14.21,46.61v669.12c0,13.28,2.47,32.15,14.21,46.61,11.5,14.16,29.6,21.34,53.77,21.34h253.99c24.18,0,42.27-7.18,53.77-21.34,11.75-14.46,14.21-33.33,14.21-46.61V70.44c0-13.28-2.47-32.15-14.21-46.61-11.5-14.16-29.6-21.34-53.77-21.34H73ZM73,808.56c-24.51,0-42.88-7.31-54.59-21.73-11.94-14.7-14.45-33.82-14.45-47.27V70.44c0-13.45,2.51-32.57,14.45-47.27C30.13,8.75,48.49,1.44,73,1.44h253.99c24.51,0,42.88,7.31,54.59,21.73,11.94,14.7,14.45,33.82,14.45,47.27v669.12c0,13.45-2.51,32.57-14.45,47.27-11.71,14.42-30.08,21.73-54.59,21.73H73Z" fill="#9a9993" opacity=".5"/>
            <path d="M73,2.44c-24.19,0-42.3,7.19-53.81,21.36-11.76,14.47-14.22,33.35-14.22,46.64v669.12c0,13.29,2.47,32.17,14.22,46.64,11.51,14.17,29.62,21.36,53.81,21.36h253.99c24.19,0,42.3-7.19,53.81-21.36,11.76-14.47,14.22-33.35,14.22-46.64V70.44c0-13.29-2.47-32.17-14.22-46.64-11.51-14.17-29.62-21.36-53.81-21.36H73ZM73,808.51c-24.49,0-42.85-7.3-54.55-21.71-11.93-14.69-14.44-33.8-14.44-47.24V70.44c0-13.45,2.51-32.55,14.44-47.24C30.16,8.79,48.51,1.49,73,1.49h253.99c24.49,0,42.85,7.3,54.55,21.71,11.93,14.69,14.44,33.8,14.44,47.24v669.12c0,13.44-2.5,32.55-14.44,47.24-11.7,14.4-30.06,21.71-54.55,21.71H73Z" fill="#a3a29c" opacity=".56"/>
            <path d="M73,2.39c-24.21,0-42.33,7.19-53.85,21.38-11.76,14.48-14.23,33.37-14.23,46.67v669.12c0,13.3,2.47,32.19,14.23,46.67,11.52,14.18,29.64,21.38,53.85,21.38h253.99c24.21,0,42.33-7.19,53.85-21.38,11.77-14.48,14.24-33.37,14.24-46.67V70.44c0-13.3-2.47-32.19-14.24-46.67-11.52-14.18-29.64-21.38-53.85-21.38H73ZM73,808.46c-24.48,0-42.82-7.3-54.51-21.69-11.92-14.68-14.43-33.77-14.43-47.21V70.44c0-13.44,2.5-32.53,14.43-47.21C30.18,8.84,48.52,1.54,73,1.54h253.99c24.48,0,42.82,7.3,54.51,21.69,11.92,14.68,14.43,33.77,14.43,47.21v669.12c0,13.44-2.5,32.53-14.43,47.21-11.69,14.39-30.03,21.69-54.51,21.69H73Z" fill="#acaba4" opacity=".62"/>
            <path d="M73,2.34c-24.23,0-42.36,7.2-53.89,21.39-11.77,14.49-14.25,33.4-14.25,46.7v669.12c0,13.31,2.47,32.21,14.25,46.7,11.53,14.2,29.66,21.39,53.89,21.39h253.99c24.23,0,42.36-7.2,53.89-21.39,11.77-14.49,14.25-33.4,14.25-46.7V70.44c0-13.31-2.47-32.21-14.25-46.7-11.53-14.2-29.66-21.39-53.89-21.39H73ZM73,808.41c-24.46,0-42.79-7.29-54.47-21.67-11.91-14.67-14.42-33.75-14.42-47.18V70.44c0-13.43,2.5-32.51,14.42-47.18C30.21,8.88,48.54,1.59,73,1.59h253.99c24.46,0,42.79,7.29,54.47,21.67,11.91,14.67,14.41,33.75,14.41,47.18v669.12c0,13.43-2.5,32.51-14.41,47.18-11.68,14.38-30.01,21.67-54.47,21.67H73Z" fill="#b5b4ad" opacity=".69"/>
            <path d="M73,2.29c-24.24,0-42.38,7.2-53.93,21.41-11.78,14.5-14.26,33.42-14.26,46.74v669.12c0,13.31,2.47,32.23,14.26,46.73,11.54,14.21,29.69,21.41,53.93,21.41h253.99c24.24,0,42.38-7.2,53.93-21.41,11.78-14.51,14.26-33.42,14.26-46.74V70.44c0-13.31-2.47-32.23-14.26-46.74-11.54-14.21-29.69-21.41-53.93-21.41H73ZM73,808.36c-24.45,0-42.76-7.29-54.44-21.65-11.9-14.65-14.4-33.73-14.4-47.15V70.44c0-13.42,2.5-32.49,14.4-47.15C30.24,8.92,48.56,1.64,73,1.64h253.99c24.45,0,42.76,7.29,54.44,21.65,11.9,14.65,14.4,33.73,14.4,47.15v669.12c0,13.42-2.5,32.49-14.4,47.15-11.67,14.37-29.99,21.65-54.44,21.65H73Z" fill="#bebdb6" opacity=".75"/>
            <path d="M73,2.24c-24.26,0-42.41,7.21-53.97,21.43-11.79,14.52-14.27,33.44-14.27,46.77v669.12c0,13.32,2.48,32.25,14.27,46.77,11.55,14.22,29.71,21.43,53.97,21.43h253.99c24.26,0,42.41-7.21,53.96-21.43,11.79-14.52,14.27-33.44,14.27-46.77V70.44c0-13.32-2.48-32.25-14.27-46.77-11.55-14.22-29.71-21.43-53.96-21.43H73ZM73,808.31c-24.43,0-42.73-7.28-54.4-21.64-11.9-14.64-14.39-33.71-14.39-47.12V70.44c0-13.41,2.5-32.47,14.39-47.12C30.27,8.97,48.57,1.69,73,1.69h253.99c24.43,0,42.73,7.28,54.4,21.64,11.9,14.64,14.39,33.71,14.39,47.12v669.12c0,13.41-2.5,32.47-14.39,47.12-11.66,14.36-29.97,21.64-54.4,21.64H73Z" fill="#c7c7bf" opacity=".81"/>
            <path d="M73,2.2c-24.27,0-42.44,7.22-54,21.45-11.8,14.53-14.28,33.47-14.28,46.8v669.12c0,13.33,2.48,32.27,14.28,46.8,11.56,14.23,29.73,21.45,54,21.45h253.99c24.27,0,42.44-7.22,54-21.45,11.8-14.53,14.28-33.47,14.28-46.8V70.44c0-13.33-2.48-32.27-14.28-46.8-11.56-14.23-29.73-21.45-54-21.45H73ZM73,808.26c-24.42,0-42.71-7.27-54.36-21.62-11.89-14.63-14.38-33.68-14.38-47.09V70.44c0-13.41,2.5-32.45,14.38-47.09C30.3,9.01,48.59,1.74,73,1.74h253.99c24.42,0,42.71,7.27,54.36,21.62,11.89,14.63,14.38,33.68,14.38,47.09v669.12c0,13.4-2.5,32.45-14.38,47.09-11.65,14.34-29.94,21.62-54.36,21.62H73Z" fill="#d0d0c8" opacity=".88"/>
            <path d="M73,2.15c-24.29,0-42.47,7.22-54.04,21.47-11.81,14.54-14.29,33.49-14.29,46.83v669.12c0,13.34,2.48,32.29,14.29,46.83,11.57,14.24,29.75,21.47,54.04,21.47h253.99c24.29,0,42.47-7.22,54.04-21.47,11.81-14.54,14.29-33.49,14.29-46.83V70.44c0-13.34-2.48-32.29-14.29-46.83-11.57-14.24-29.75-21.47-54.04-21.47H73ZM73,808.21c-24.4,0-42.68-7.27-54.32-21.6-11.88-14.62-14.37-33.66-14.37-47.06V70.44c0-13.4,2.49-32.43,14.37-47.06C30.33,9.05,48.6,1.79,73,1.79h253.99c24.4,0,42.68,7.27,54.32,21.6,11.88,14.62,14.37,33.66,14.37,47.06v669.12c0,13.4-2.49,32.43-14.37,47.06-11.64,14.33-29.92,21.6-54.32,21.6H73Z" fill="#d9d9d1" opacity=".94"/>
            <path d="M73,2.1c-24.3,0-42.5,7.23-54.08,21.48-11.82,14.55-14.3,33.51-14.3,46.86v669.12c0,13.35,2.48,32.31,14.3,46.86,11.58,14.26,29.78,21.48,54.08,21.48h253.99c24.3,0,42.5-7.23,54.08-21.48,11.82-14.55,14.3-33.51,14.3-46.86V70.44c0-13.35-2.48-32.31-14.3-46.86-11.58-14.26-29.78-21.48-54.08-21.48H73ZM73,808.17c-24.39,0-42.65-7.26-54.28-21.58-11.87-14.61-14.36-33.64-14.36-47.02V70.44c0-13.39,2.49-32.41,14.36-47.02C30.35,9.1,48.62,1.84,73,1.84h253.99c24.39,0,42.65,7.26,54.28,21.58,11.87,14.61,14.36,33.64,14.36,47.02v669.12c0,13.39-2.49,32.41-14.36,47.02-11.63,14.32-29.9,21.58-54.28,21.58H73Z" fill="#e2e2da"/>
          </g>
        </g>
        <g opacity=".9">
          <rect x="2.52" y="82.1" width="394.95" height="5.7" fill="url(#_횁책챌청챙첼챠챠청챕_찾챨횪채챔책챠챵_1425)"/>
          <rect x="2.52" y="722.19" width="394.95" height="5.7" fill="url(#_횁책챌청챙첼챠챠청챕_찾챨횪채챔책챠챵_1425-2)"/>
          <rect x="296.63" width="5.7" height="5.24" fill="url(#_횁책챌청챙첼챠챠청챕_찾챨횪채챔책챠챵_1428)"/>
          <rect x="97.66" y="804.76" width="5.7" height="5.24" fill="url(#_횁책챌청챙첼챠챠청챕_찾챨횪채챔책챠챵_1428-2)"/>
        </g>
        <g>
          <path d="M73,804.76c-23.31,0-40.68-6.84-51.64-20.32-11.24-13.83-13.6-32.04-13.6-44.88V70.44c0-12.84,2.36-31.04,13.6-44.88,10.95-13.48,28.33-20.32,51.64-20.32h253.99c23.31,0,40.68,6.84,51.64,20.32,11.24,13.83,13.6,32.04,13.6,44.88v669.12c0,12.84-2.36,31.04-13.6,44.88-10.96,13.48-28.33,20.32-51.64,20.32H73Z"/>
          <path d="M378.23,25.9c-10.85-13.36-28.09-20.13-51.23-20.13H73c-23.14,0-40.38,6.77-51.23,20.13-11.14,13.71-13.48,31.79-13.48,44.55v669.12c0,12.75,2.34,30.83,13.48,44.55,10.85,13.36,28.09,20.13,51.23,20.13h253.99c23.14,0,40.38-6.77,51.23-20.13,11.14-13.71,13.48-31.79,13.48-44.55V70.44c0-12.75-2.34-30.83-13.48-44.55ZM391.44,739.56c0,12.71-2.33,30.73-13.42,44.38-10.8,13.29-27.97,20.03-51.03,20.03H73c-23.06,0-40.23-6.74-51.03-20.03-11.09-13.65-13.42-31.67-13.42-44.38V70.44c0-12.71,2.33-30.73,13.42-44.38,10.8-13.29,27.97-20.03,51.03-20.03h253.99c23.06,0,40.23,6.74,51.03,20.03,11.09,13.65,13.42,31.67,13.42,44.38v669.12Z" fill="#2b2c31"/>
        </g>
      </g>
      <g>
        <g>
          <path d="M246.74,30.32c0,3.88-3.15,7.02-7.03,7.02s-7.03-3.14-7.03-7.02,3.14-7.02,7.03-7.02,7.03,3.14,7.03,7.02Z" fill="url(#radial-gradient)"/>
          <path d="M244.36,30.32c0,2.56-2.08,4.64-4.64,4.64s-4.65-2.08-4.65-4.64,2.08-4.64,4.65-4.64,4.64,2.08,4.64,4.64Z" fill="#000102"/>
          <g clip-path="url(#clippath)">
            <g>
              <path d="M239.72,34.07c-2.07,0-3.75-1.68-3.75-3.75s1.68-3.75,3.75-3.75,3.75,1.68,3.75,3.75-1.68,3.75-3.75,3.75Z" fill="url(#_횁책챌청챙첼챠챠청챕_찾챨횪채챔책챠챵_3945)"/>
              <path d="M239.72,34.05c-2.06,0-3.73-1.67-3.73-3.73s1.68-3.73,3.73-3.73,3.73,1.67,3.73,3.73-1.67,3.73-3.73,3.73Z" fill="url(#linear-gradient)"/>
              <path d="M239.72,34.03c-2.05,0-3.71-1.66-3.71-3.71s1.67-3.71,3.71-3.71,3.71,1.66,3.71,3.71-1.66,3.71-3.71,3.71Z" fill="url(#linear-gradient-2)"/>
              <path d="M239.72,34.01c-2.03,0-3.69-1.65-3.69-3.69s1.66-3.69,3.69-3.69,3.69,1.65,3.69,3.69-1.66,3.69-3.69,3.69Z" fill="url(#linear-gradient-3)"/>
              <path d="M239.72,33.99c-2.02,0-3.67-1.64-3.67-3.67s1.65-3.67,3.67-3.67,3.67,1.65,3.67,3.67-1.65,3.67-3.67,3.67Z" fill="url(#linear-gradient-4)"/>
              <path d="M239.72,33.97c-2.01,0-3.65-1.64-3.65-3.65s1.64-3.65,3.65-3.65,3.65,1.64,3.65,3.65-1.64,3.65-3.65,3.65Z" fill="url(#linear-gradient-5)"/>
              <path d="M239.72,33.95c-2,0-3.63-1.63-3.63-3.62s1.63-3.62,3.63-3.62,3.63,1.63,3.63,3.62-1.63,3.62-3.63,3.62Z" fill="url(#linear-gradient-6)"/>
              <path d="M239.72,33.92c-1.99,0-3.61-1.62-3.61-3.6s1.62-3.6,3.61-3.6,3.61,1.62,3.61,3.6-1.62,3.6-3.61,3.6Z" fill="url(#linear-gradient-7)"/>
              <path d="M239.72,33.9c-1.98,0-3.58-1.61-3.58-3.58s1.61-3.58,3.58-3.58,3.58,1.61,3.58,3.58-1.61,3.58-3.58,3.58Z" fill="url(#linear-gradient-8)"/>
              <path d="M239.72,33.88c-1.96,0-3.56-1.6-3.56-3.56s1.6-3.56,3.56-3.56,3.56,1.6,3.56,3.56-1.6,3.56-3.56,3.56Z" fill="url(#linear-gradient-9)"/>
              <path d="M239.72,33.86c-1.95,0-3.54-1.59-3.54-3.54s1.59-3.54,3.54-3.54,3.54,1.59,3.54,3.54-1.59,3.54-3.54,3.54Z" fill="url(#linear-gradient-10)"/>
              <path d="M239.72,33.84c-1.94,0-3.52-1.58-3.52-3.52s1.58-3.52,3.52-3.52,3.52,1.58,3.52,3.52-1.58,3.52-3.52,3.52Z" fill="url(#linear-gradient-11)"/>
              <path d="M239.72,33.82c-1.93,0-3.5-1.57-3.5-3.5s1.57-3.5,3.5-3.5,3.5,1.57,3.5,3.5-1.57,3.5-3.5,3.5Z" fill="url(#linear-gradient-12)"/>
              <path d="M239.72,33.8c-1.92,0-3.48-1.56-3.48-3.48s1.56-3.48,3.48-3.48,3.48,1.56,3.48,3.48-1.56,3.48-3.48,3.48Z" fill="url(#linear-gradient-13)"/>
              <path d="M239.72,33.78c-1.91,0-3.46-1.55-3.46-3.45s1.55-3.45,3.46-3.45,3.46,1.55,3.46,3.45-1.55,3.45-3.46,3.45Z" fill="url(#linear-gradient-14)"/>
              <path d="M239.72,33.75c-1.89,0-3.44-1.54-3.44-3.43s1.54-3.43,3.44-3.43,3.44,1.54,3.44,3.43-1.54,3.43-3.44,3.43Z" fill="url(#linear-gradient-15)"/>
              <path d="M239.72,33.73c-1.88,0-3.41-1.53-3.41-3.41s1.53-3.41,3.41-3.41,3.41,1.53,3.41,3.41-1.53,3.41-3.41,3.41Z" fill="url(#linear-gradient-16)"/>
              <path d="M239.72,33.71c-1.87,0-3.39-1.52-3.39-3.39s1.52-3.39,3.39-3.39,3.39,1.52,3.39,3.39-1.52,3.39-3.39,3.39Z" fill="url(#linear-gradient-17)"/>
              <path d="M239.72,33.69c-1.86,0-3.37-1.51-3.37-3.37s1.51-3.37,3.37-3.37,3.37,1.51,3.37,3.37-1.51,3.37-3.37,3.37Z" fill="url(#linear-gradient-18)"/>
              <path d="M239.72,33.67c-1.85,0-3.35-1.5-3.35-3.35s1.5-3.35,3.35-3.35,3.35,1.5,3.35,3.35-1.5,3.35-3.35,3.35Z" fill="url(#linear-gradient-19)"/>
              <path d="M239.72,33.65c-1.84,0-3.33-1.49-3.33-3.33s1.49-3.33,3.33-3.33,3.33,1.49,3.33,3.33-1.49,3.33-3.33,3.33Z" fill="url(#linear-gradient-20)"/>
              <path d="M239.72,33.63c-1.82,0-3.31-1.48-3.31-3.31s1.48-3.31,3.31-3.31,3.31,1.48,3.31,3.31-1.48,3.31-3.31,3.31Z" fill="url(#_횁책챌청챙첼챠챠청챕_찾챨횪채챔책챠챵_3949)"/>
              <path d="M239.72,33.6c-1.81,0-3.28-1.47-3.28-3.28s1.47-3.28,3.28-3.28,3.28,1.47,3.28,3.28-1.47,3.28-3.28,3.28Z" fill="url(#linear-gradient-21)"/>
              <path d="M239.72,33.58c-1.8,0-3.26-1.46-3.26-3.26s1.46-3.26,3.26-3.26,3.26,1.46,3.26,3.26-1.46,3.26-3.26,3.26Z" fill="url(#linear-gradient-22)"/>
              <path d="M239.72,33.55c-1.78,0-3.24-1.45-3.24-3.23s1.45-3.23,3.24-3.23,3.24,1.45,3.24,3.23-1.45,3.23-3.24,3.23Z" fill="url(#linear-gradient-23)"/>
              <path d="M239.72,33.53c-1.77,0-3.21-1.44-3.21-3.21s1.44-3.21,3.21-3.21,3.21,1.44,3.21,3.21-1.44,3.21-3.21,3.21Z" fill="url(#linear-gradient-24)"/>
              <path d="M239.72,33.51c-1.76,0-3.19-1.43-3.19-3.19s1.43-3.19,3.19-3.19,3.19,1.43,3.19,3.19-1.43,3.19-3.19,3.19Z" fill="url(#linear-gradient-25)"/>
              <path d="M239.72,33.48c-1.74,0-3.16-1.42-3.16-3.16s1.42-3.16,3.16-3.16,3.16,1.42,3.16,3.16-1.42,3.16-3.16,3.16Z" fill="url(#linear-gradient-26)"/>
              <path d="M239.72,33.46c-1.73,0-3.14-1.41-3.14-3.14s1.41-3.14,3.14-3.14,3.14,1.41,3.14,3.14-1.41,3.14-3.14,3.14Z" fill="url(#linear-gradient-27)"/>
              <path d="M239.72,33.43c-1.72,0-3.12-1.4-3.12-3.11s1.4-3.11,3.12-3.11,3.12,1.4,3.12,3.11-1.4,3.11-3.12,3.11Z" fill="url(#linear-gradient-28)"/>
              <path d="M239.72,33.41c-1.7,0-3.09-1.39-3.09-3.09s1.39-3.09,3.09-3.09,3.09,1.39,3.09,3.09-1.39,3.09-3.09,3.09Z" fill="url(#linear-gradient-29)"/>
              <path d="M239.72,33.39c-1.69,0-3.07-1.38-3.07-3.07s1.38-3.07,3.07-3.07,3.07,1.38,3.07,3.07-1.38,3.07-3.07,3.07Z" fill="url(#linear-gradient-30)"/>
              <path d="M239.72,33.36c-1.68,0-3.04-1.36-3.04-3.04s1.37-3.04,3.04-3.04,3.04,1.36,3.04,3.04-1.37,3.04-3.04,3.04Z" fill="url(#linear-gradient-31)"/>
              <path d="M239.72,33.34c-1.66,0-3.02-1.35-3.02-3.02s1.35-3.02,3.02-3.02,3.02,1.35,3.02,3.02-1.36,3.02-3.02,3.02Z" fill="url(#linear-gradient-32)"/>
              <path d="M239.72,33.31c-1.65,0-3-1.34-3-2.99s1.34-2.99,3-2.99,3,1.34,3,2.99-1.34,2.99-3,2.99Z" fill="url(#linear-gradient-33)"/>
              <path d="M239.72,33.29c-1.64,0-2.97-1.33-2.97-2.97s1.33-2.97,2.97-2.97,2.97,1.33,2.97,2.97-1.33,2.97-2.97,2.97Z" fill="url(#linear-gradient-34)"/>
              <path d="M239.72,33.27c-1.62,0-2.95-1.32-2.95-2.95s1.32-2.95,2.95-2.95,2.95,1.32,2.95,2.95-1.32,2.95-2.95,2.95Z" fill="url(#linear-gradient-35)"/>
              <path d="M239.72,33.24c-1.61,0-2.92-1.31-2.92-2.92s1.31-2.92,2.92-2.92,2.92,1.31,2.92,2.92-1.31,2.92-2.92,2.92Z" fill="url(#linear-gradient-36)"/>
              <path d="M239.72,33.22c-1.6,0-2.9-1.3-2.9-2.9s1.3-2.9,2.9-2.9,2.9,1.3,2.9,2.9-1.3,2.9-2.9,2.9Z" fill="url(#linear-gradient-37)"/>
              <path d="M239.72,33.19c-1.59,0-2.88-1.29-2.88-2.87s1.29-2.87,2.88-2.87,2.88,1.29,2.88,2.87-1.29,2.87-2.88,2.87Z" fill="url(#linear-gradient-38)"/>
              <path d="M239.72,33.17c-1.57,0-2.85-1.28-2.85-2.85s1.28-2.85,2.85-2.85,2.85,1.28,2.85,2.85-1.28,2.85-2.85,2.85Z" fill="url(#linear-gradient-39)"/>
              <path d="M239.72,33.15c-1.56,0-2.83-1.27-2.83-2.83s1.27-2.83,2.83-2.83,2.83,1.27,2.83,2.83-1.27,2.83-2.83,2.83Z" fill="url(#linear-gradient-40)"/>
              <path d="M239.72,33.12c-1.55,0-2.8-1.26-2.8-2.8s1.26-2.8,2.8-2.8,2.8,1.26,2.8,2.8-1.26,2.8-2.8,2.8Z" fill="url(#_횁책챌청챙첼챠챠청챕_찾챨횪채챔책챠챵_3945-2)"/>
              <path d="M239.72,33.1c-1.53,0-2.78-1.25-2.78-2.78s1.25-2.78,2.78-2.78,2.78,1.25,2.78,2.78-1.25,2.78-2.78,2.78Z" fill="url(#linear-gradient-41)"/>
              <path d="M239.72,33.07c-1.52,0-2.75-1.23-2.75-2.75s1.24-2.75,2.75-2.75,2.75,1.23,2.75,2.75-1.24,2.75-2.75,2.75Z" fill="url(#linear-gradient-42)"/>
              <path d="M239.72,33.05c-1.5,0-2.73-1.22-2.73-2.73s1.22-2.73,2.73-2.73,2.73,1.22,2.73,2.73-1.22,2.73-2.73,2.73Z" fill="url(#linear-gradient-43)"/>
              <path d="M239.72,33.02c-1.49,0-2.7-1.21-2.7-2.7s1.21-2.7,2.7-2.7,2.7,1.21,2.7,2.7-1.21,2.7-2.7,2.7Z" fill="url(#linear-gradient-44)"/>
              <path d="M239.72,33c-1.48,0-2.68-1.2-2.68-2.68s1.2-2.68,2.68-2.68,2.68,1.2,2.68,2.68-1.2,2.68-2.68,2.68Z" fill="url(#linear-gradient-45)"/>
              <path d="M239.72,32.97c-1.46,0-2.65-1.19-2.65-2.65s1.19-2.65,2.65-2.65,2.65,1.19,2.65,2.65-1.19,2.65-2.65,2.65Z" fill="url(#linear-gradient-46)"/>
              <path d="M239.72,32.95c-1.45,0-2.63-1.18-2.63-2.63s1.18-2.63,2.63-2.63,2.63,1.18,2.63,2.63-1.18,2.63-2.63,2.63Z" fill="url(#linear-gradient-47)"/>
              <path d="M239.72,32.92c-1.44,0-2.6-1.17-2.6-2.6s1.17-2.6,2.6-2.6,2.6,1.17,2.6,2.6-1.17,2.6-2.6,2.6Z" fill="url(#linear-gradient-48)"/>
              <path d="M239.72,32.9c-1.42,0-2.58-1.16-2.58-2.58s1.16-2.58,2.58-2.58,2.58,1.16,2.58,2.58-1.16,2.58-2.58,2.58Z" fill="url(#linear-gradient-49)"/>
              <path d="M239.72,32.87c-1.41,0-2.55-1.14-2.55-2.55s1.15-2.55,2.55-2.55,2.55,1.14,2.55,2.55-1.15,2.55-2.55,2.55Z" fill="url(#linear-gradient-50)"/>
              <path d="M239.72,32.85c-1.39,0-2.53-1.13-2.53-2.53s1.13-2.53,2.53-2.53,2.53,1.13,2.53,2.53-1.13,2.53-2.53,2.53Z" fill="url(#linear-gradient-51)"/>
              <path d="M239.72,32.82c-1.38,0-2.5-1.12-2.5-2.5s1.12-2.5,2.5-2.5,2.5,1.12,2.5,2.5-1.12,2.5-2.5,2.5Z" fill="url(#linear-gradient-52)"/>
              <path d="M239.72,32.8c-1.37,0-2.48-1.11-2.48-2.48s1.11-2.48,2.48-2.48,2.48,1.11,2.48,2.48-1.11,2.48-2.48,2.48Z" fill="url(#linear-gradient-53)"/>
              <path d="M239.72,32.77c-1.35,0-2.45-1.1-2.45-2.45s1.1-2.45,2.45-2.45,2.45,1.1,2.45,2.45-1.1,2.45-2.45,2.45Z" fill="url(#linear-gradient-54)"/>
              <path d="M239.72,32.75c-1.34,0-2.43-1.09-2.43-2.43s1.09-2.43,2.43-2.43,2.43,1.09,2.43,2.43-1.09,2.43-2.43,2.43Z" fill="url(#linear-gradient-55)"/>
              <path d="M239.72,32.72c-1.32,0-2.4-1.08-2.4-2.4s1.08-2.4,2.4-2.4,2.4,1.08,2.4,2.4-1.08,2.4-2.4,2.4Z" fill="url(#linear-gradient-56)"/>
              <path d="M239.72,32.7c-1.31,0-2.38-1.07-2.38-2.38s1.07-2.38,2.38-2.38,2.38,1.07,2.38,2.38-1.07,2.38-2.38,2.38Z" fill="url(#linear-gradient-57)"/>
              <path d="M239.72,32.67c-1.3,0-2.35-1.05-2.35-2.35s1.06-2.35,2.35-2.35,2.35,1.05,2.35,2.35-1.06,2.35-2.35,2.35Z" fill="url(#linear-gradient-58)"/>
              <path d="M239.72,32.65c-1.28,0-2.33-1.04-2.33-2.33s1.04-2.33,2.33-2.33,2.33,1.04,2.33,2.33-1.04,2.33-2.33,2.33Z" fill="url(#linear-gradient-59)"/>
              <path d="M239.72,32.62c-1.27,0-2.3-1.03-2.3-2.3s1.03-2.3,2.3-2.3,2.3,1.03,2.3,2.3-1.03,2.3-2.3,2.3Z" fill="url(#linear-gradient-60)"/>
              <path d="M239.72,32.6c-1.26,0-2.28-1.02-2.28-2.28s1.02-2.28,2.28-2.28,2.28,1.02,2.28,2.28-1.02,2.28-2.28,2.28Z" fill="url(#_횁책챌청챙첼챠챠청챕_찾챨횪채챔책챠챵_3954)"/>
              <path d="M239.72,32.57c-1.24,0-2.25-1.01-2.25-2.25s1.01-2.25,2.25-2.25,2.25,1.01,2.25,2.25-1.01,2.25-2.25,2.25Z" fill="url(#linear-gradient-61)"/>
              <path d="M239.72,32.55c-1.23,0-2.23-1-2.23-2.22s1-2.22,2.23-2.22,2.23,1,2.23,2.22-1,2.22-2.23,2.22Z" fill="url(#linear-gradient-62)"/>
              <path d="M239.72,32.52c-1.21,0-2.2-.99-2.2-2.2s.99-2.2,2.2-2.2,2.2.99,2.2,2.2-.99,2.2-2.2,2.2Z" fill="url(#linear-gradient-63)"/>
              <path d="M239.72,32.49c-1.2,0-2.17-.97-2.17-2.17s.98-2.17,2.17-2.17,2.17.97,2.17,2.17-.97,2.17-2.17,2.17Z" fill="url(#linear-gradient-64)"/>
              <path d="M239.72,32.47c-1.18,0-2.15-.96-2.15-2.15s.96-2.15,2.15-2.15,2.15.96,2.15,2.15-.96,2.15-2.15,2.15Z" fill="url(#linear-gradient-65)"/>
              <path d="M239.72,32.44c-1.17,0-2.12-.95-2.12-2.12s.95-2.12,2.12-2.12,2.12.95,2.12,2.12-.95,2.12-2.12,2.12Z" fill="url(#linear-gradient-66)"/>
              <path d="M239.72,32.42c-1.16,0-2.1-.94-2.1-2.1s.94-2.09,2.1-2.09,2.1.94,2.1,2.09-.94,2.1-2.1,2.1Z" fill="url(#linear-gradient-67)"/>
              <path d="M239.72,32.39c-1.14,0-2.07-.93-2.07-2.07s.93-2.07,2.07-2.07,2.07.93,2.07,2.07-.93,2.07-2.07,2.07Z" fill="url(#linear-gradient-68)"/>
              <path d="M239.72,32.36c-1.13,0-2.04-.92-2.04-2.04s.92-2.04,2.04-2.04,2.04.92,2.04,2.04-.92,2.04-2.04,2.04Z" fill="url(#linear-gradient-69)"/>
              <path d="M239.72,32.34c-1.11,0-2.02-.9-2.02-2.02s.91-2.02,2.02-2.02,2.02.9,2.02,2.02-.91,2.02-2.02,2.02Z" fill="url(#linear-gradient-70)"/>
              <path d="M239.72,32.31c-1.1,0-1.99-.89-1.99-1.99s.89-1.99,1.99-1.99,1.99.89,1.99,1.99-.89,1.99-1.99,1.99Z" fill="url(#linear-gradient-71)"/>
              <path d="M239.72,32.29c-1.08,0-1.97-.88-1.97-1.97s.88-1.96,1.97-1.96,1.97.88,1.97,1.96-.88,1.97-1.97,1.97Z" fill="url(#linear-gradient-72)"/>
              <path d="M239.72,32.26c-1.07,0-1.94-.87-1.94-1.94s.87-1.94,1.94-1.94,1.94.87,1.94,1.94-.87,1.94-1.94,1.94Z" fill="url(#linear-gradient-73)"/>
              <path d="M239.72,32.23c-1.06,0-1.91-.86-1.91-1.91s.86-1.91,1.91-1.91,1.91.86,1.91,1.91-.86,1.91-1.91,1.91Z" fill="url(#linear-gradient-74)"/>
              <path d="M239.72,32.21c-1.04,0-1.89-.85-1.89-1.89s.85-1.89,1.89-1.89,1.89.85,1.89,1.89-.85,1.89-1.89,1.89Z" fill="url(#linear-gradient-75)"/>
              <path d="M239.72,32.18c-1.03,0-1.86-.84-1.86-1.86s.84-1.86,1.86-1.86,1.86.83,1.86,1.86-.84,1.86-1.86,1.86Z" fill="url(#linear-gradient-76)"/>
              <path d="M239.72,32.16c-1.01,0-1.84-.82-1.84-1.84s.82-1.84,1.84-1.84,1.84.82,1.84,1.84-.82,1.84-1.84,1.84Z" fill="url(#linear-gradient-77)"/>
              <path d="M239.72,32.13c-1,0-1.81-.81-1.81-1.81s.81-1.81,1.81-1.81,1.81.81,1.81,1.81-.81,1.81-1.81,1.81Z" fill="url(#linear-gradient-78)"/>
              <path d="M239.72,32.11c-.98,0-1.78-.8-1.78-1.78s.8-1.78,1.78-1.78,1.79.8,1.79,1.78-.8,1.78-1.79,1.78Z" fill="url(#linear-gradient-79)"/>
              <path d="M239.72,32.08c-.97,0-1.76-.79-1.76-1.76s.79-1.76,1.76-1.76,1.76.79,1.76,1.76-.79,1.76-1.76,1.76Z" fill="url(#linear-gradient-80)"/>
              <path d="M239.72,32.05c-.96,0-1.73-.78-1.73-1.73s.78-1.73,1.73-1.73,1.73.78,1.73,1.73-.78,1.73-1.73,1.73Z" fill="#121211"/>
            </g>
            <g mask="url(#mask)">
              <path d="M243.59,26.18c1.68,1.5,2.17,3.69,1.1,4.87-1.07,1.19-3.29.93-4.97-.57-1.68-1.5-2.17-3.69-1.1-4.87,1.07-1.19,3.29-.93,4.97.57Z" fill="#512ca6"/>
            </g>
            <g mask="url(#mask-2)">
              <path d="M239.37,30.65c1.68,1.5,2.17,3.69,1.1,4.87-1.07,1.19-3.29.93-4.97-.57-1.68-1.5-2.17-3.69-1.1-4.87,1.07-1.19,3.29-.93,4.97.57Z" fill="#512ca6"/>
            </g>
            <g mask="url(#mask-4)">
              <path d="M241.47,26.88c.71.64.85,1.63.32,2.21-.53.59-1.53.55-2.24-.08-.71-.64-.85-1.63-.32-2.21.53-.59,1.53-.55,2.24.08Z" fill="#c49aca" opacity=".7"/>
            </g>
            <g mask="url(#mask-6)">
              <path d="M238.66,31.44c.71.63.85,1.63.32,2.21-.53.59-1.53.55-2.24-.08-.71-.63-.85-1.63-.32-2.21.53-.59,1.53-.55,2.24.08Z" fill="#00abe3"/>
            </g>
            <g>
              <path d="M242.74,28.09c0,.37-.3.67-.67.67s-.67-.3-.67-.67.3-.66.67-.66.67.3.67.66Z" fill="#fff"/>
              <path d="M241.88,28.94c0,.37-.3.67-.67.67s-.67-.3-.67-.67.3-.67.67-.67.67.3.67.67Z" fill="#fff"/>
              <path d="M240.86,29.63c0,.18-.15.33-.34.33s-.34-.15-.34-.33.15-.34.34-.34.34.15.34.34Z" fill="#fff"/>
              <path d="M238.06,32.1c-.26-.26-.46-.54-.6-.83-.03-.07-.13-.04-.13.03h0c0,.85.69,1.53,1.53,1.53h0c.07,0,.1-.1.03-.13-.29-.14-.57-.34-.83-.6Z" fill="#9fc6f4"/>
            </g>
          </g>
        </g>
        <g>
          <path d="M219.27,34.5h-38.53c-2.31,0-4.18-1.87-4.18-4.18h0c0-2.31,1.87-4.18,4.18-4.18h38.53c2.31,0,4.18,1.87,4.18,4.18h0c0,2.31-1.87,4.18-4.18,4.18Z"/>
          <g mask="url(#mask-8)">
            <path d="M181.4,26.14h-.67c-2.31,0-4.18,1.87-4.18,4.18s1.87,4.18,4.18,4.18h.67v-8.36Z" fill="#999" opacity=".7"/>
          </g>
          <g mask="url(#mask-11)">
            <path d="M219.27,26.14h-1.76v8.36h1.76c2.31,0,4.18-1.87,4.18-4.18s-1.87-4.18-4.18-4.18Z" fill="#999" opacity=".7"/>
          </g>
          <path d="M180.74,33.21c-1.6,0-2.89-1.3-2.89-2.89s1.3-2.89,2.89-2.89h38.53c1.6,0,2.89,1.3,2.89,2.89s-1.3,2.89-2.89,2.89h-38.53Z" fill="#303030"/>
          <path d="M222.03,30.96c.05-.21.13-.41.13-.64s-.08-.43-.13-.64l-.6-.6.25-.25c-.09-.15-.17-.3-.28-.42l-.32.32-.89-.89.19-.19c-.34-.14-.72-.22-1.11-.22h-.2l.41.41-.89.89-.89-.89.41-.41h-.71l-.06.06-.06-.06h-.71l.41.41-.89.89-.88-.89.41-.41h-.71l-.06.06-.06-.06h-.71l.41.41-.89.89-.89-.89.41-.41h-.71l-.06.06-.06-.06h-.71l.41.41-.89.89-.89-.89.41-.41h-.71l-.06.06-.06-.06h-.71l.41.41-.88.89-.89-.89.41-.41h-.71l-.06.06-.06-.06h-.71l.41.41-.88.89-.89-.89.41-.41h-.71l-.06.06-.06-.06h-.71l.41.41-.89.89-.89-.89.41-.41h-.71l-.06.06-.06-.06h-.71l.41.41-.88.89-.89-.89.41-.41h-.71l-.06.06-.06-.06h-.71l.41.41-.88.89-.89-.89.41-.41h-.71l-.06.06-.06-.06h-.71l.41.41-.88.89-.89-.89.41-.41h-.71l-.06.06-.06-.06h-.71l.41.41-.89.89-.89-.89.41-.41h-.71l-.06.06-.06-.06h-.71l.41.41-.89.89-.89-.89.41-.41h-.71l-.06.06-.06-.06h-.71l.41.41-.89.89-.88-.89.41-.41h-.71l-.06.06-.06-.06h-.71l.41.41-.89.89-.88-.89.41-.41h-.71l-.06.06-.06-.06h-.71l.41.41-.89.89-.89-.89.41-.41h-.71l-.06.06-.06-.06h-.71l.41.41-.89.89-.89-.89.41-.41h-.2c-.39,0-.77.08-1.11.22l.19.19-.88.89-.32-.32c-.11.13-.19.28-.28.42l.25.25-.6.6c-.05.21-.13.41-.13.64s.08.43.13.64l.6.6-.25.25c.09.15.17.3.28.42l.32-.32.88.89-.19.19c.34.14.72.23,1.11.23h.2l-.41-.41.89-.89.89.89-.41.41h.71l.06-.06.06.06h.71l-.41-.41.89-.89.89.89-.41.41h.71l.06-.06.06.06h.71l-.41-.41.88-.89.89.89-.41.41h.71l.06-.06.06.06h.71l-.41-.41.88-.89.89.89-.41.41h.71l.06-.06.06.06h.71l-.41-.41.89-.89.89.89-.41.41h.71l.06-.06.06.06h.71l-.41-.41.89-.89.89.89-.41.41h.71l.06-.06.06.06h.71l-.41-.41.89-.89.88.89-.41.41h.71l.06-.06.06.06h.71l-.41-.41.89-.89.88.89-.41.41h.71l.06-.06.06.06h.71l-.41-.41.89-.89.88.89-.41.41h.71l.06-.06.06.06h.71l-.41-.41.89-.89.89.89-.41.41h.71l.06-.06.06.06h.71l-.41-.41.89-.89.88.89-.41.41h.71l.06-.06.06.06h.71l-.41-.41.89-.89.88.89-.41.41h.71l.06-.06.06.06h.71l-.41-.41.88-.89.89.89-.41.41h.71l.06-.06.06.06h.71l-.41-.41.89-.89.89.89-.41.41h.71l.06-.06.06.06h.71l-.41-.41.88-.89.89.89-.41.41h.71l.06-.06.06.06h.71l-.41-.41.88-.89.89.89-.41.41h.2c.39,0,.77-.08,1.11-.23l-.19-.19.89-.89.32.32c.11-.13.19-.28.28-.42l-.25-.25.6-.6ZM219.83,28.2l.89.89-.89.88-.88-.88.88-.89ZM217.36,28.2l.89.89-.89.88-.89-.88.89-.89ZM214.88,28.2l.89.89-.89.88-.89-.88.89-.89ZM212.4,28.2l.89.89-.89.88-.88-.88.88-.89ZM209.92,28.2l.89.89-.89.88-.89-.88.89-.89ZM207.44,28.2l.89.89-.89.88-.89-.88.89-.89ZM204.96,28.2l.88.89-.88.88-.89-.88.89-.89ZM202.48,28.2l.88.89-.88.88-.89-.88.89-.89ZM200,28.2l.88.89-.88.88-.89-.88.89-.89ZM197.52,28.2l.88.89-.88.88-.89-.88.89-.89ZM195.04,28.2l.88.89-.88.88-.89-.88.89-.89ZM192.56,28.2l.89.89-.89.88-.89-.88.89-.89ZM190.08,28.2l.89.89-.89.88-.88-.88.88-.89ZM187.6,28.2l.89.89-.89.88-.89-.88.89-.89ZM185.12,28.2l.89.89-.89.88-.88-.88.88-.89ZM182.64,28.2l.89.89-.89.88-.88-.88.88-.89ZM180.17,28.2l.89.89-.89.88-.89-.88.89-.89ZM178.04,30.32l.89-.89.88.89-.88.89-.89-.89ZM180.17,32.44l-.89-.89.89-.89.89.89-.89.89ZM180.52,30.32l.89-.89.89.89-.89.89-.89-.89ZM182.64,32.44l-.88-.89.88-.89.89.89-.89.89ZM183,30.32l.89-.88.89.88-.89.89-.89-.89ZM185.12,32.44l-.88-.89.88-.89.89.89-.89.89ZM185.48,30.32l.88-.89.89.89-.89.89-.88-.89ZM187.6,32.44l-.89-.89.89-.89.89.89-.89.89ZM187.96,30.32l.89-.89.89.89-.89.89-.89-.89ZM190.08,32.44l-.88-.89.88-.89.89.89-.89.89ZM190.44,30.32l.89-.89.89.89-.89.89-.89-.89ZM192.56,32.44l-.89-.89.89-.89.89.89-.89.89ZM192.92,30.32l.89-.89.89.89-.89.89-.89-.89ZM195.04,32.44l-.89-.89.89-.89.88.89-.88.89ZM195.4,30.32l.89-.89.88.89-.88.89-.89-.89ZM197.52,32.44l-.89-.89.89-.89.88.89-.88.89ZM197.87,30.32l.89-.88.88.88-.88.89-.89-.89ZM200,32.44l-.89-.89.89-.89.89.89-.89.89ZM200.35,30.32l.89-.88.88.88-.88.89-.89-.89ZM202.48,32.44l-.89-.89.89-.89.88.89-.88.89ZM202.83,30.32l.89-.89.89.89-.89.89-.89-.89ZM204.96,32.44l-.89-.89.89-.89.88.89-.88.89ZM205.31,30.32l.89-.89.88.89-.88.89-.89-.89ZM207.44,32.44l-.89-.89.89-.89.89.89-.89.89ZM207.79,30.32l.89-.89.88.89-.88.89-.89-.89ZM209.92,32.44l-.89-.89.89-.89.89.89-.89.89ZM210.27,30.32l.89-.89.89.89-.89.89-.89-.89ZM212.4,32.44l-.88-.89.88-.89.89.89-.89.89ZM212.75,30.32l.89-.89.89.89-.89.89-.89-.89ZM214.88,32.44l-.89-.89.89-.89.89.89-.89.89ZM215.23,30.32l.88-.88.89.88-.89.89-.88-.89ZM217.36,32.44l-.89-.89.89-.89.89.89-.89.89ZM217.71,30.32l.89-.89.89.89-.89.89-.89-.89ZM219.83,32.44l-.88-.89.88-.89.89.89-.89.89ZM220.19,30.32l.89-.89.89.89-.89.89-.89-.89Z" fill="#060606"/>
          <g>
            <path d="M180.74,33.21c-1.6,0-2.89-1.3-2.89-2.89s1.3-2.89,2.89-2.89h38.53c1.6,0,2.89,1.3,2.89,2.89s-1.3,2.89-2.89,2.89h-38.53Z"/>
            <path d="M180.74,33.15c-1.56,0-2.83-1.27-2.83-2.83s1.27-2.83,2.83-2.83h38.53c1.56,0,2.83,1.27,2.83,2.83s-1.27,2.83-2.83,2.83h-38.53Z" opacity=".95"/>
            <path d="M180.74,33.09c-1.53,0-2.77-1.24-2.77-2.77s1.24-2.77,2.77-2.77h38.53c1.53,0,2.77,1.24,2.77,2.77s-1.24,2.77-2.77,2.77h-38.53Z" opacity=".9"/>
            <path d="M180.74,33.03c-1.49,0-2.71-1.21-2.71-2.71s1.21-2.71,2.71-2.71h38.53c1.49,0,2.71,1.21,2.71,2.71s-1.21,2.71-2.71,2.71h-38.53Z" opacity=".86"/>
            <path d="M180.74,32.97c-1.46,0-2.65-1.19-2.65-2.64s1.19-2.64,2.65-2.64h38.53c1.46,0,2.65,1.19,2.65,2.64s-1.19,2.64-2.65,2.64h-38.53Z" opacity=".81"/>
            <path d="M180.74,32.9c-1.43,0-2.58-1.16-2.58-2.58s1.16-2.58,2.58-2.58h38.53c1.43,0,2.58,1.16,2.58,2.58s-1.16,2.58-2.58,2.58h-38.53Z" opacity=".76"/>
            <path d="M180.74,32.84c-1.39,0-2.52-1.13-2.52-2.52s1.13-2.52,2.52-2.52h38.53c1.39,0,2.52,1.13,2.52,2.52s-1.13,2.52-2.52,2.52h-38.53Z" opacity=".71"/>
            <path d="M180.74,32.78c-1.36,0-2.46-1.1-2.46-2.46s1.1-2.46,2.46-2.46h38.53c1.36,0,2.46,1.1,2.46,2.46s-1.1,2.46-2.46,2.46h-38.53Z" opacity=".67"/>
            <path d="M180.74,32.72c-1.32,0-2.4-1.08-2.4-2.4s1.08-2.4,2.4-2.4h38.53c1.32,0,2.4,1.08,2.4,2.4s-1.08,2.4-2.4,2.4h-38.53Z" opacity=".62"/>
            <path d="M180.74,32.66c-1.29,0-2.34-1.05-2.34-2.34s1.05-2.34,2.34-2.34h38.53c1.29,0,2.34,1.05,2.34,2.34s-1.05,2.34-2.34,2.34h-38.53Z" opacity=".57"/>
            <path d="M180.74,32.6c-1.26,0-2.28-1.02-2.28-2.28s1.02-2.28,2.28-2.28h38.53c1.26,0,2.28,1.02,2.28,2.28s-1.02,2.28-2.28,2.28h-38.53Z" opacity=".52"/>
            <path d="M180.74,32.53c-1.22,0-2.22-.99-2.22-2.21s.99-2.21,2.22-2.21h38.53c1.22,0,2.22.99,2.22,2.21s-.99,2.21-2.22,2.21h-38.53Z" opacity=".48"/>
            <path d="M180.74,32.47c-1.19,0-2.15-.96-2.15-2.15s.97-2.15,2.15-2.15h38.53c1.19,0,2.15.96,2.15,2.15s-.97,2.15-2.15,2.15h-38.53Z" opacity=".43"/>
            <path d="M180.74,32.41c-1.15,0-2.09-.94-2.09-2.09s.94-2.09,2.09-2.09h38.53c1.15,0,2.09.94,2.09,2.09s-.94,2.09-2.09,2.09h-38.53Z" opacity=".38"/>
            <path d="M180.74,32.35c-1.12,0-2.03-.91-2.03-2.03s.91-2.03,2.03-2.03h38.53c1.12,0,2.03.91,2.03,2.03s-.91,2.03-2.03,2.03h-38.53Z" opacity=".33"/>
            <path d="M180.74,32.29c-1.09,0-1.97-.88-1.97-1.97s.88-1.97,1.97-1.97h38.53c1.09,0,1.97.88,1.97,1.97s-.88,1.97-1.97,1.97h-38.53Z" opacity=".29"/>
            <path d="M180.74,32.23c-1.05,0-1.91-.85-1.91-1.91s.85-1.91,1.91-1.91h38.53c1.05,0,1.91.85,1.91,1.91s-.86,1.91-1.91,1.91h-38.53Z" opacity=".24"/>
            <path d="M180.74,32.16c-1.02,0-1.85-.83-1.85-1.85s.83-1.84,1.85-1.84h38.53c1.02,0,1.85.83,1.85,1.84s-.83,1.85-1.85,1.85h-38.53Z" opacity=".19"/>
            <path d="M180.74,32.1c-.99,0-1.78-.8-1.78-1.78s.8-1.78,1.78-1.78h38.53c.99,0,1.79.8,1.79,1.78s-.8,1.78-1.79,1.78h-38.53Z" opacity=".14"/>
            <path d="M180.74,32.04c-.95,0-1.72-.77-1.72-1.72s.77-1.72,1.72-1.72h38.53c.95,0,1.72.77,1.72,1.72s-.77,1.72-1.72,1.72h-38.53Z" opacity=".1"/>
            <path d="M180.74,31.98c-.92,0-1.66-.74-1.66-1.66s.74-1.66,1.66-1.66h38.53c.92,0,1.66.74,1.66,1.66s-.74,1.66-1.66,1.66h-38.53Z" opacity=".05"/>
            <path d="M180.74,31.92c-.88,0-1.6-.72-1.6-1.6s.72-1.6,1.6-1.6h38.53c.88,0,1.6.72,1.6,1.6s-.72,1.6-1.6,1.6h-38.53Z" opacity="0"/>
          </g>
        </g>
      </g>
    </g>
  </g>
</svg>